<?xml version="1.0" encoding="UTF-8"?>
<svg xmlns="http://www.w3.org/2000/svg" viewBox="0 0 255.55 56.69">
  <defs>
    <style>.cls-1{fill:#898989;}.cls-2{fill:#c9caca;}.cls-3{fill:#e60012;}.cls-4{fill:#ffd900;}.cls-5{fill:#0068b7;}.cls-6{fill:#920783;}.cls-7{fill:#009c42;}.cls-8{fill:#003d6d;}</style>
  </defs>
  <title>election</title>
  <g id="Layer_2" data-name="Layer 2">
    <path class="cls-1" d="M211.87,49.4l-1.38-4.75h-1.68a1.89,1.89,0,0,1,.08.65v5.8h1v-5l1.49,5h1l1.49-5v5h1V44.64h-1.73a1.07,1.07,0,0,1-.05.65Zm8.37,0-1.38-4.75h-1.68a1.89,1.89,0,0,1,.08.65v5.8h1v-5l1.49,5h1l1.49-5v5h1V44.64h-1.73a1.06,1.06,0,0,1-.05.65Zm-62.13-4.11v5.8h3.55v-1h-2.54V48.24h2.33v-1h-2.33V45.61h2.54v-1H158A1.89,1.89,0,0,1,158.11,45.29ZM154,44.64H152.9a1.91,1.91,0,0,1,.08.65v5.8h3.55v-1H154Zm-6.88.65v5.8h3.55v-1H148.1V48.24h2.33v-1H148.1V45.61h2.54v-1H147A1.91,1.91,0,0,1,147.1,45.29Zm-6.94-.65h-1.08a1.89,1.89,0,0,1,.08.65v5.8h3.55v-1h-2.54Zm-6.2,0a.93.93,0,0,1-.11.61l-2.29,5.83h1.09l.58-1.58h2.66l.58,1.58h1.12l-2.51-6.45Zm-.41,4,1-2.76,1,2.76ZM99.21,45.29v4.15l-2.42-4.8H95.45a1.91,1.91,0,0,1,.08.65v5.8h1V46.19L99,51.09h1.2V44.64H99.13A1.91,1.91,0,0,1,99.21,45.29Zm5-.65a.94.94,0,0,1-.11.61l-2.29,5.83h1.09l.58-1.58h2.66l.58,1.58h1.12l-2.51-6.45Zm-.41,4,1-2.76,1,2.76Zm16.68-4.06c-1.89,0-2.87,1.48-2.87,3.33s1,3.33,2.87,3.33,2.87-1.48,2.87-3.33S122.35,44.54,120.46,44.54Zm0,5.7c-1.2,0-1.81-1.05-1.81-2.36s.62-2.36,1.81-2.36,1.81,1.05,1.81,2.36S121.65,50.23,120.46,50.23Zm-5.92-4.94v5.8h1V44.64h-1.08A1.91,1.91,0,0,1,114.54,45.29Zm14.45,0v4.15l-2.42-4.8h-1.35a1.91,1.91,0,0,1,.08.65v5.8h1V46.19l2.49,4.91H130V44.64h-1.08A1.91,1.91,0,0,1,129,45.29Zm-20.89.32h1.79v5.48h1V45.61h1.79v-1H108.1ZM230.61,47.1a2.19,2.19,0,0,1-.53-.37.66.66,0,0,1-.2-.48.65.65,0,0,1,.29-.59,1.18,1.18,0,0,1,.63-.16,2.5,2.5,0,0,1,1.15.3l.14-1a3.67,3.67,0,0,0-1.33-.26,2.07,2.07,0,0,0-1.37.46,1.71,1.71,0,0,0-.57,1.34,1.64,1.64,0,0,0,.41,1.15,4.73,4.73,0,0,0,1.33.86,1.91,1.91,0,0,1,.53.39.83.83,0,0,1,.21.57.84.84,0,0,1-.35.72,1.21,1.21,0,0,1-.69.22,3.35,3.35,0,0,1-1.27-.35l-.1,1a3.87,3.87,0,0,0,1.28.29,2.48,2.48,0,0,0,1.54-.45,1.81,1.81,0,0,0,.65-1.51,1.86,1.86,0,0,0-.41-1.23A4.2,4.2,0,0,0,230.61,47.1Zm5.36,0a2.17,2.17,0,0,1-.53-.37.66.66,0,0,1-.2-.48.65.65,0,0,1,.29-.59,1.18,1.18,0,0,1,.63-.16,2.5,2.5,0,0,1,1.15.3l.14-1a3.67,3.67,0,0,0-1.33-.26,2.08,2.08,0,0,0-1.37.46,1.71,1.71,0,0,0-.57,1.34,1.64,1.64,0,0,0,.41,1.15,4.71,4.71,0,0,0,1.33.86,1.91,1.91,0,0,1,.53.39.83.83,0,0,1,.21.57.84.84,0,0,1-.35.72,1.21,1.21,0,0,1-.69.22,3.35,3.35,0,0,1-1.27-.35l-.1,1a3.87,3.87,0,0,0,1.28.29,2.48,2.48,0,0,0,1.54-.45,1.81,1.81,0,0,0,.65-1.51A1.86,1.86,0,0,0,237.3,48,4.21,4.21,0,0,0,236,47.1ZM190,45.29v4.15l-2.42-4.8h-1.35a1.91,1.91,0,0,1,.08.65v5.8h1V46.19l2.49,4.91H191V44.64h-1.09A1.91,1.91,0,0,1,190,45.29Zm14-.75c-1.89,0-2.87,1.48-2.87,3.33s1,3.33,2.87,3.33,2.87-1.48,2.87-3.33S205.94,44.54,204,44.54Zm0,5.7c-1.2,0-1.81-1.05-1.81-2.36s.62-2.36,1.81-2.36,1.81,1.05,1.81,2.36S205.24,50.23,204,50.23Zm-34.92-4.62h1.79v5.48h1V45.61h1.79v-1h-4.59Zm12.36-1.08c-1.89,0-2.87,1.48-2.87,3.33s1,3.33,2.87,3.33,2.87-1.48,2.87-3.33S183.37,44.54,181.48,44.54Zm0,5.7c-1.2,0-1.81-1.05-1.81-2.36s.62-2.36,1.81-2.36,1.81,1.05,1.81,2.36S182.68,50.23,181.48,50.23Zm-5.91-4.94v5.8h1V44.64h-1.08A1.91,1.91,0,0,1,175.57,45.29Zm78.69,0v4.15l-2.42-4.8h-1.35a1.89,1.89,0,0,1,.08.65v5.8h1V46.19l2.49,4.91h1.2V44.64h-1.08A1.91,1.91,0,0,1,254.25,45.29Zm-8.53-.75c-1.89,0-2.87,1.48-2.87,3.33s1,3.33,2.87,3.33,2.87-1.48,2.87-3.33S247.61,44.54,245.72,44.54Zm0,5.7c-1.2,0-1.81-1.05-1.81-2.36s.62-2.36,1.81-2.36,1.81,1.05,1.81,2.36S246.92,50.23,245.72,50.23Zm-5.91-4.94v5.8h1V44.64h-1.08A1.89,1.89,0,0,1,239.81,45.29Zm-14.17,0v5.8h1V44.64h-1.08A1.89,1.89,0,0,1,225.64,45.29Zm-58.13,4.65a1.83,1.83,0,0,1-.55.21,3,3,0,0,1-.65.08,2,2,0,0,1-1.47-.65,2.49,2.49,0,0,1-.61-1.72,2.52,2.52,0,0,1,.59-1.7,2,2,0,0,1,1.54-.67,2.09,2.09,0,0,1,1.14.34l.13.08v-.15l.07-.93-.05,0a3.27,3.27,0,0,0-3.58.63,3.38,3.38,0,0,0-.89,2.39,3.5,3.5,0,0,0,.86,2.44,3,3,0,0,0,2.27.91h0a3.41,3.41,0,0,0,1.35-.23l.06,0-.06-1.09Zm31.35.21a3,3,0,0,1-.65.08,2,2,0,0,1-1.47-.65,2.49,2.49,0,0,1-.61-1.72,2.52,2.52,0,0,1,.59-1.7,2,2,0,0,1,1.54-.67,2.16,2.16,0,0,1,1.27.42l.08-1.08a3,3,0,0,0-1.39-.3,3.07,3.07,0,0,0-2.25.91,3.38,3.38,0,0,0-.89,2.39,3.5,3.5,0,0,0,.86,2.44,3,3,0,0,0,2.27.91,3.36,3.36,0,0,0,1.41-.26l-.06-1.09A1.76,1.76,0,0,1,198.87,50.15Z"></path>
    <path class="cls-1" d="M121,31.05c-3.73,0-5.8,2.11-5.8,4.71s2.08,4.71,5.8,4.71,5.8-2.11,5.8-4.71S124.71,31.05,121,31.05Zm0,7.44a2.74,2.74,0,1,1,3-2.73A2.73,2.73,0,0,1,121,38.49ZM93.54,30.76h7v1.09c-2.79.43-4.32,2.18-4.32,4.26,0,2.41,2,4.37,5.7,4.37s5.71-2,5.71-4.37c0-2.09-1.53-3.83-4.32-4.26V30.76h7V28.82H93.54Zm11.36,5.36c0,1.32-1,2.38-2.93,2.38S99,37.43,99,36.11s1-2.38,2.93-2.38S104.9,34.8,104.9,36.11ZM122,24.8c0-2.6-1.86-4.71-5.21-4.71s-5.21,2.11-5.21,4.71,1.86,4.71,5.21,4.71S122,27.41,122,24.8Zm-7.64,0a2.45,2.45,0,1,1,4.86,0,2.45,2.45,0,1,1-4.86,0Zm29,8.93H146a15.94,15.94,0,0,0,.15-2.37V19.84h-3a5.84,5.84,0,0,1,.25,2v2H140v2h3.37ZM174.5,23.19a34.69,34.69,0,0,1-.25,5.09h2.11c.6-1.32.91-4,.92-7.44h-9.92v1.93h7.14Zm-80,3.4,1.18,1.29A25,25,0,0,0,102.47,25c2.52,1.16,5.16,2.76,5.16,2.76l2-2.28c-2.41-.85-5-1.61-5.32-1.7a20.35,20.35,0,0,0,3.83-3.46H95.53v1.88h6.6A21.29,21.29,0,0,1,94.54,26.59Zm132.2,1c3,0,4.71-1.78,4.71-4s-1.68-4-4.71-4-4.71,1.78-4.71,4S223.71,27.58,226.74,27.58Zm0-6a1.88,1.88,0,0,1,1.93,2,1.94,1.94,0,1,1-3.87,0A1.88,1.88,0,0,1,226.74,21.58ZM209,28.77c3.35,0,5.21-1.93,5.21-4.32s-1.86-4.32-5.21-4.32-5.21,1.93-5.21,4.32S205.65,28.77,209,28.77Zm0-6.65a2.33,2.33,0,1,1-2.43,2.33A2.25,2.25,0,0,1,209,22.12Zm7.17-.3v9.12a17.18,17.18,0,0,1-3.33.3h-9.67v2h4.17v6.45H210a16,16,0,0,0,.15-2.37V33.24h2.47a15.33,15.33,0,0,0,3.58-.45v7.1h2.63a15.81,15.81,0,0,0,.15-2.37V19.84h-3A5.84,5.84,0,0,1,216.17,21.83Zm8.73,11.91h2.63a15.93,15.93,0,0,0,.15-2.37v-.91H231a15.29,15.29,0,0,0,3.58-.45v1.34h-4.17v1.88h4.17v2h2.63a15.81,15.81,0,0,0,.15-2.37v-13h-3a5.84,5.84,0,0,1,.25,2v6.34a17.28,17.28,0,0,1-3.33.3H221.23v2h3.67Zm-27-11.91v9.66a17.15,17.15,0,0,1-3.34.31h-5.78V28.18h6.45V20.83H186v1.93h6.45v3.52h-6.7a5.53,5.53,0,0,1,.25,2v4.46a1,1,0,0,0,1,1h7.31a15.3,15.3,0,0,0,3.6-.45v6.61h2.63a15.81,15.81,0,0,0,.15-2.37V19.84h-3A5.84,5.84,0,0,1,197.91,21.83Zm29.86,12.9h-3a5.51,5.51,0,0,1,.25,2v2a1,1,0,0,0,1,1H237.5v-2h-9.72ZM181.84,19.84h-3a5.84,5.84,0,0,1,.25,2v7.63a17.15,17.15,0,0,1-3.34.31h-3.4v-4h-3a5.84,5.84,0,0,1,.25,2v2h-3.27v2h9.2a15.29,15.29,0,0,0,3.6-.45v3.43h2.63a15.8,15.8,0,0,0,.15-2.37V26.79h2.48v-2h-2.48Zm70.68,0a5.84,5.84,0,0,1,.25,2v11.6a17.19,17.19,0,0,1-3.33.3h-2.37V30.61a4.14,4.14,0,0,0,3.37-4.19,3.45,3.45,0,0,0-1.7-3.15h2.49V21.33h-4.17v-2h-3a5.84,5.84,0,0,1,.25,2h-4.17v1.93h2.49a3.45,3.45,0,0,0-1.7,3.15,4.14,4.14,0,0,0,3.37,4.19v3.12h-4.82v2h9.71a15.33,15.33,0,0,0,3.58-.45v4.62h2.63a15.81,15.81,0,0,0,.15-2.37V19.84Zm-6.84,8.93c-1.27,0-2-1.06-2-2.36s.71-2.36,2-2.36,2,1.05,2,2.36S247,28.77,245.68,28.77ZM149,20.83v2h5.59c-.38,3.78-3.07,8.06-6.3,10.51l1.46,1.4A19.3,19.3,0,0,0,155,29.36a17.84,17.84,0,0,0,3-8.53ZM136.5,32.74h-3a5.51,5.51,0,0,1,.25,2v4a1,1,0,0,0,1,1h11.51v-2H136.5Zm2.4-1.62,2.26-2.34c-1.67-1.35-3.38-2.74-5.08-4a9.51,9.51,0,0,0,1-4.11v-.35h-3.44A8.07,8.07,0,0,1,133.8,22a9.27,9.27,0,0,1-1.58,4.55,12.74,12.74,0,0,1-3.27,3.67l1.43,1.07a19.57,19.57,0,0,0,4.7-4.73C136.41,28,137.81,29.68,138.9,31.12Zm22.3-9.29v4.76h-3.87v2h3.87V39.88h2.63a16,16,0,0,0,.15-2.37V19.84h-3A5.84,5.84,0,0,1,161.2,21.83Zm-31.75,2H127v-4h-3a5.84,5.84,0,0,1,.25,2v8.93h2.63a15.78,15.78,0,0,0,.15-2.36V25.8h2.48Zm42.76,9.92h-3a5.53,5.53,0,0,1,.25,2v3a1,1,0,0,0,1,1h11.51v-2h-9.72Z"></path>
    <path class="cls-2" d="M49.47,53.86l29.41-29.4L54.42,0,11.13,43.29,21.69,53.86H2.83L0,56.69H73.7l-2.83-2.83ZM15.14,43.29,54.42,4,74.87,24.45l-29.4,29.4H25.7Z"></path>
    <path class="cls-3" d="M72.85,35.51l.12-.17s-.11,0-.11,0-.11.13-.12.17Zm-2.63-4c0-.06.12-.12.14-.17s-.06-.08,0-.12-.13.13-.14.17S70.23,31.47,70.22,31.51Zm-.52.28a1.3,1.3,0,0,0,.15-.17l.14-.17s.13-.12.14-.17,0-.08,0-.13,0-.13,0-.12a1.53,1.53,0,0,0-.15.17s0,.1,0,.13-.12.12-.14.17,0-.13,0-.12a1.38,1.38,0,0,0-.15.17s0,.11,0,.12S69.68,31.79,69.7,31.79Zm.87-1s-.06-.07,0-.12-.11.11-.14.16.05.08,0,.13S70.55,30.81,70.57,30.76Zm0,.53s-.12.12-.14.16,0,.11,0,.12,0,.13,0,.12.1-.15.14-.17-.05-.07,0-.12.14-.16.14-.16a.33.33,0,0,0,0-.12S70.57,31.28,70.55,31.29Zm2.29,4.59s-.1,0-.12,0-.1,0-.11,0,.11-.15.11-.16-.09,0-.11,0-.1.16-.12.17-.09,0-.11,0-.09,0-.11,0a1.05,1.05,0,0,0-.11.17s-.1.15-.12.16-.08,0-.1,0l.11-.17s-.1,0-.1,0,.12-.16.12-.17l-.1,0s-.08.15-.11.16-.07-.06-.11,0-.1.16-.11.16.06,0,.1,0l-.11.17-.11.16s-.09.13-.11.16.1,0,.11,0,.11,0,.11,0a1.41,1.41,0,0,1-.11.16s-.1.16-.1.16.09,0,.11,0l.22.05.11-.16a1.88,1.88,0,0,1,.1-.17l.12,0,.11,0a1.32,1.32,0,0,0,.11-.17,1.65,1.65,0,0,1,.11-.16s.09,0,.12,0,.08-.15.11-.17.1,0,.12,0,.11,0,.13,0,.07-.14.1-.17l-.24,0S72.84,35.91,72.84,35.89Zm-5.08-3.53c0,.05.05.08,0,.12l.15-.18.16-.19a1.42,1.42,0,0,0,.15-.18s0-.1,0-.13l-.15.18s0-.13,0-.13a1.7,1.7,0,0,0-.16.19s0,.1,0,.13S67.77,32.32,67.76,32.36Zm2.71-1.31s0-.08,0-.12-.12.12-.14.17.05.07,0,.12S70.44,31.1,70.46,31.05Zm1.29,6.12s.1,0,.11,0L72,37l-.12,0-.12,0s-.1.13-.09.16S71.73,37.16,71.75,37.18Zm-.67.93s.09-.12.09-.16l-.24-.06-.17.31s-.09.13-.09.16.11,0,.12,0a1.29,1.29,0,0,1,.09-.15l.12,0a.63.63,0,0,1-.08.15l-.08.16a.61.61,0,0,0-.08.16s.12,0,.13,0,.1,0,.13,0,0-.12.07-.15-.11,0-.12,0,.08-.12.08-.15a1.06,1.06,0,0,1,.08-.16.69.69,0,0,0,.08-.16S71.09,38.12,71.08,38.1Zm.57-6.16s0,.08.05.1l.05.1L71.9,32a1.79,1.79,0,0,0,.14-.16s0-.08-.05-.1a.67.67,0,0,0-.05-.1s0-.07,0-.1-.11.1-.14.16.06.07,0,.1S71.65,31.93,71.65,31.95Zm-4.5.6.16-.19c0-.06.11-.15.16-.19s0,.13,0,.13a2.33,2.33,0,0,0,.16-.19l.15-.18-.09-.26-.15.19a1.36,1.36,0,0,1-.16.19s0-.13,0-.13l-.16.19s0,.1,0,.12-.14.17-.16.2l-.17.2,0,.12Zm-.25-.06a1.5,1.5,0,0,0-.16.19s0,.13,0,.13.13-.17.16-.18S66.94,32.48,66.9,32.48Zm3.53,6.36s.09-.16.08-.16-.11,0-.12,0,0,.13-.08.16-.09-.05-.12,0a1,1,0,0,0-.08.15s.11,0,.13,0,.1,0,.12,0-.08.14-.08.15.11,0,.13,0l.15-.31S70.45,38.86,70.43,38.84Zm-2.89,1.53s-.11,0-.15,0-.05.14-.09.16-.11,0-.15,0-.07.14-.09.17a1,1,0,0,0-.09.16,1.12,1.12,0,0,0-.09.17S67,41,67,41a.58.58,0,0,0,.17,0s0-.13.09-.17l.09-.16.08-.17A.94.94,0,0,1,67.54,40.36Zm7.74-8.59.15-.17.16-.18a1.32,1.32,0,0,0,.15-.17s-.11,0-.11,0a1.49,1.49,0,0,1,.16-.17l.16-.17s.08,0,.11,0a1.45,1.45,0,0,0,.16-.17l.17-.17s.15-.15.16-.17-.12,0-.12,0-.11.13-.16.16-.07,0-.11,0a1.48,1.48,0,0,0-.16.17s-.11.12-.16.16l-.16.17a1.88,1.88,0,0,1-.16.16s-.08,0-.1,0-.11.13-.16.16-.1.13-.15.17-.07-.05-.1,0-.11.14-.16.17Zm.79.24h.12a2,2,0,0,0,.16-.18l.16-.17.17-.18s-.14,0-.14,0,.16-.14.17-.17-.12,0-.13,0l-.32.35H76l-.16.17L75.7,32s.13,0,.12,0-.13.14-.16.17-.14.14-.15.17.13,0,.12,0-.16.16-.15.17.1,0,.13,0,.13,0,.13,0,.14-.14.15-.17.15-.14.17-.18-.14,0-.13,0A1.22,1.22,0,0,1,76.07,32Zm1-.43a1.75,1.75,0,0,0,.17-.18s.17-.16.17-.18-.15,0-.15,0l-.17.18-.17.19-.16.18.14,0ZM75.42,32.9a1.57,1.57,0,0,0-.15.18s-.15.16-.15.18.13,0,.13,0l.15-.18s.08,0,.13,0,.1-.14.15-.18.09,0,.13,0L76,32.7s-.13,0-.13,0,.15-.15.15-.18-.12,0-.13,0-.13,0-.13,0-.14.14-.16.18Zm1-1.93c-.05,0-.07,0-.12,0s-.13.14-.16.17l-.16.17-.16.17s.07,0,.12,0,.11-.15.16-.17.07,0,.12,0,.08,0,.13,0,.11-.14.16-.17h-.12l.16-.17S76.46,30.94,76.41,31Zm.18,1c.05,0,.12-.15.17-.18s-.11,0-.14,0-.12.14-.16.18S76.55,32,76.6,32Zm.59-1,.17-.18.35-.35c-.05,0-.09,0-.14,0s-.13.15-.17.18l-.17.18A1.57,1.57,0,0,0,77,31S77.18,30.93,77.19,30.94Zm-4.58.22s0,.1.06.1l.14-.16.14-.16-.06-.1s0-.08-.06-.09-.12.15-.14.15,0-.1-.05-.1-.11.14-.14.16l.06.1S72.58,31.16,72.6,31.17Zm4.72-.88s.14-.14.17-.17a1.37,1.37,0,0,0,.18-.17L78,29.6s-.08,0-.13,0a2,2,0,0,0-.18.17l-.17.17-.34.34S77.28,30.31,77.33,30.28Zm.55,0s.14,0,.15,0-.17.15-.18.18l.15,0c.05,0,.13-.14.18-.18l.15,0,.19-.18.19-.18s.18-.17.19-.18-.15,0-.16,0l-.18.18a2.43,2.43,0,0,1-.18.18.43.43,0,0,1-.15,0l-.15,0S77.89,30.21,77.88,30.23Zm-4.26,1.19s.12-.15.15-.16.05.09.07.06a1,1,0,0,0,.15-.16l.15-.15s-.08,0-.08-.07.14-.13.15-.16-.08,0-.08-.06l-.14.16-.29.32-.14.16S73.58,31.43,73.62,31.42Zm1.59-1s.07.06.09,0,.12-.13.16-.16.14-.12.15-.16-.08,0-.09,0-.14.16-.15.17-.05-.06-.09,0-.14.12-.15.16S75.2,30.42,75.21,30.42Zm-1.73,2.51a2.12,2.12,0,0,0,.14-.17l.15-.17c0-.05.13-.12.15-.17s-.1,0-.09,0,.15-.14.15-.17-.07,0-.09,0-.09,0-.08,0a2.16,2.16,0,0,1,.15-.16L74,32s.11-.15.15-.17.1-.13.15-.16.05.06.09,0,.11-.15.15-.17l.3-.33-.18-.09s-.1.14-.15.16,0-.07-.08-.05a1.09,1.09,0,0,0-.15.17l.08.05s-.13.14-.15.16a1.73,1.73,0,0,1-.15.17s-.08,0-.09-.05-.06-.06-.08-.06l-.15.17-.14.16a2.25,2.25,0,0,0-.15.17s.07.06.08.06l.08.06s.09,0,.08,0a2.2,2.2,0,0,1-.15.17.79.79,0,0,0-.14.16s.09,0,.09,0-.13.13-.15.17S73.44,33,73.48,32.94Zm3.05-2a.58.58,0,0,1,.13,0s.09,0,.12,0A2.14,2.14,0,0,0,77,30.8a1.52,1.52,0,0,0,.17-.17s-.14,0-.13,0l-.17.17c-.05,0-.07,0-.12,0S76.57,30.94,76.53,31Zm-.95-.37s-.13.14-.16.16a2,2,0,0,0-.15.17s.11,0,.09,0a1.29,1.29,0,0,1,.16-.17s.15-.14.15-.17Zm.57-.46s.08,0,.1,0,.12-.13.16-.16-.12,0-.1,0,.14-.13.16-.16.15-.13.16-.16l-.1,0s-.14.14-.16.16a1,1,0,0,0-.15.16s-.15.13-.16.16S76.14,30.15,76.16,30.15Zm-.93,1,.09,0,.16-.17s-.12,0-.1,0S75.22,31.12,75.23,31.13ZM68.5,32s.12-.17.15-.18,0,.13,0,.12l.16-.18a.32.32,0,0,0,0-.13s0-.13,0-.13-.13.16-.15.18a1.79,1.79,0,0,0-.16.18C68.44,31.93,68.51,32,68.5,32Zm9.91-1.44-.16,0s-.14.16-.19.19-.13,0-.16,0l-.17.18s.16,0,.15,0-.17.16-.18.19.09,0,.15,0S78,31,78,30.93a.93.93,0,0,1,.16,0l.16,0s.15-.16.19-.19l.19-.19s-.18.07-.17,0,.17-.15.19-.19-.17.07-.17.05Zm-.13-.11.15,0s.17-.06.17,0a2.58,2.58,0,0,1,.19-.19S78.95,30,79,30l-.33.08ZM77,31.9a.31.31,0,0,1-.14,0,1.1,1.1,0,0,0-.15,0s-.13.16-.16.18-.09,0-.14,0-.08,0-.13,0-.11.14-.16.18l.27,0s-.15.15-.16.18.12,0,.14,0l.16-.18a.49.49,0,0,1,.14,0s-.16.18-.16.19l.14,0a2,2,0,0,0,.17-.19l.16-.19s.13-.15.17-.19S77.08,31.87,77,31.9Zm-.65.74a1.77,1.77,0,0,0-.15.19l-.16.18s.14-.05.15,0-.15.15-.16.19.09,0,.14,0,.1-.14.15-.18.14-.15.16-.19-.13,0-.14,0,.15-.16.15-.18ZM72,33.48s-.13.13-.14.17.08,0,.07.07-.14.16-.13.17.06.08.07.07.1-.15.13-.16,0,.08.08.06.1-.14.14-.17l-.08-.07s-.08,0-.08-.07.12-.14.14-.17l.14-.16s-.08,0-.07-.07.13-.14.14-.17-.07-.07-.08-.07l-.14.17-.14.17-.14.17S72,33.44,72,33.48Zm.88,1.85.13-.17s-.11,0-.11,0-.12.14-.12.17S72.86,35.3,72.86,35.32Zm6.31-6.16a1.27,1.27,0,0,0-.19.06s-.17.17-.21.19-.13,0-.19.06-.13.14-.2.18l.18-.05.18-.06s.13,0,.19-.07l.21-.2.22-.2ZM78,31.22s-.14.17-.18.19a.52.52,0,0,1-.15,0,.53.53,0,0,0-.15,0,2.54,2.54,0,0,0-.17.19,1.53,1.53,0,0,1-.17.19l.15,0a.42.42,0,0,0,.15,0s.14-.16.18-.19.11,0,.16,0,.12-.15.18-.19.17-.17.18-.19Zm-3.4,2.21a1.34,1.34,0,0,1,.15-.18,2,2,0,0,1,.15-.18s.08,0,.12,0a1.61,1.61,0,0,0,.15-.18h-.12a1.43,1.43,0,0,1,.15-.18l.15-.17s-.12,0-.12,0,.15-.15.15-.18h-.11l-.16.18L75,32.7l-.15.17s.12,0,.12,0a2.05,2.05,0,0,1-.15.18l-.15.18s-.11,0-.11,0,.14-.15.14-.18-.1,0-.11,0-.08,0-.12,0l-.14.17-.15.18.11,0s.11,0,.11,0l-.15.17-.14.17s-.14.15-.14.17.1,0,.11,0l.15-.17s.07,0,.12,0l.14-.17Zm1.16-.06a1.28,1.28,0,0,0-.15.18s.13,0,.14,0l-.14.17a1.78,1.78,0,0,0-.15.19s.13,0,.14,0-.1.16-.15.19.11,0,.14,0a1.69,1.69,0,0,0,.15-.18s.1-.13.14-.19l.3-.37-.28.06C75.85,33.38,75.81,33.33,75.76,33.37Zm-1.13.95s.14-.15.15-.18-.12,0-.13,0-.14.16-.14.18S74.62,34.29,74.63,34.32Zm-.6-1s.13-.14.14-.17a2.25,2.25,0,0,1,.15-.18l.15-.17.15-.17a1.53,1.53,0,0,1,.15-.17s.07,0,.11,0,.14-.15.15-.18l.15-.17-.21,0-.11,0s-.11.15-.15.17-.08-.05-.1,0-.11.14-.15.17l-.15.17-.15.17-.15.17s.11,0,.11,0-.13.16-.15.18l-.15.17s-.11,0-.1,0,.14-.15.14-.16-.08,0-.1,0-.07,0-.1,0a1.78,1.78,0,0,0-.15.17l-.14.17a1.86,1.86,0,0,1-.15.17s-.06-.06-.09,0a1.76,1.76,0,0,0-.14.16s.09,0,.09,0l-.14.17-.1,0s-.07-.06-.09,0-.11.14-.14.17l-.13.17a1,1,0,0,0-.13.17l.08,0s.1-.15.14-.17.1,0,.09,0a1.37,1.37,0,0,1-.13.17,1.74,1.74,0,0,0-.13.17s-.09.13-.13.17-.07-.06-.09,0-.08.14-.12.17-.06-.07-.09,0-.09.15-.12.17-.05-.08-.09-.05a1.17,1.17,0,0,0-.12.17l.09.05-.13.16s-.08-.06-.09,0-.09.15-.12.16-.06-.07-.09-.06-.05-.06-.09,0,.12-.13.12-.17-.09,0-.08-.06.11-.14.13-.17.07.07.08.06a1.32,1.32,0,0,0,.13-.16,1.15,1.15,0,0,1,.13-.17s0,.07.08.06.1-.16.13-.16.07,0,.09,0,.07.06.09.05.11-.14.13-.17-.09,0-.09-.05l.13-.17a1,1,0,0,0,.14-.17s-.09,0-.09,0l.13-.17.14-.17a1.23,1.23,0,0,1,.14-.16s.07.07.09,0A1.2,1.2,0,0,0,73,33.4a1.92,1.92,0,0,0,.14-.16s-.1,0-.09-.05a2.15,2.15,0,0,1-.14.17s0-.07-.08-.06-.1.15-.14.17,0-.08-.08-.06-.1.14-.14.16-.11.14-.14.17a1.3,1.3,0,0,1-.14.17s-.06-.08-.08-.07l-.13.17s.09,0,.08.07a1.52,1.52,0,0,1-.13.16s-.07-.06-.08-.06a1.15,1.15,0,0,0-.13.17s-.1.13-.13.16-.07-.06-.08-.06-.06-.08-.08-.07a1.32,1.32,0,0,0-.13.16s-.09.12-.13.17-.12.15-.13.17.07.06.08.07l.08.07-.25.33-.16-.13s-.08,0-.08-.07A1.33,1.33,0,0,1,70.8,35l.13-.17s-.09,0-.07-.07a.82.82,0,0,1,.12-.17s.06.07.08.07.09-.14.13-.16.09-.15.13-.17.07.08.07.07l.13-.17a1.39,1.39,0,0,0,.14-.16s-.08-.05-.08-.07.13-.13.14-.16-.08,0-.07-.08l.27-.33s0-.09-.07-.08-.12.17-.14.17,0-.06-.06-.07l-.06-.08a2,2,0,0,0-.14.16,1.5,1.5,0,0,0-.13.17s.08,0,.07.07-.12.12-.13.17-.07-.06-.07-.08.12-.13.13-.16-.07,0-.06-.09l-.14.17a1.85,1.85,0,0,1-.13.16.91.91,0,0,1-.13.17s0,.1.07.08S71,34,71,34s0,.09.07.08.12-.15.13-.16.08,0,.07.08l-.13.16a1.74,1.74,0,0,1-.13.17.26.26,0,0,1-.07-.09l-.07-.07-.13.16a1.43,1.43,0,0,0-.13.17s.06.07.07.08.08.06.07.08l-.12.16s-.06-.08-.07-.08-.09.15-.13.17,0-.09-.07-.07a1.54,1.54,0,0,0-.13.16,1.32,1.32,0,0,1-.13.17s-.06-.07-.07-.08S70,35,70,35a1.81,1.81,0,0,0-.13.17l-.13.17s-.11.16-.13.17,0-.08-.07-.08l.13-.17s-.06-.08-.07-.09-.12.17-.13.17-.07-.08-.07-.1-.07-.05-.07-.08.13-.14.13-.17a.35.35,0,0,0-.07-.09s-.12.17-.14.17,0-.1-.06-.1.11-.17.13-.17.11-.16.14-.17,0,.11.06.1.12-.17.14-.17,0,.07.06.09-.12.16-.13.17.06.06.06.09,0,.06.07.09,0,.08.07.08.11-.16.13-.17S70,35,70,35s.09-.13.13-.16,0,.1.08.08.09-.13.12-.17.1-.12.13-.17a1.3,1.3,0,0,0,.14-.17s-.08,0-.07-.08a1.13,1.13,0,0,1,.13-.17s0,.09.06.08.1-.16.13-.17,0-.09-.06-.08-.07-.08-.07-.09.13-.16.13-.17,0-.09-.06-.09-.1.16-.13.17,0-.09-.06-.09l-.13.17-.14.17a1.89,1.89,0,0,0-.13.17s.05.08.06.09.07.07.07.09-.12.13-.13.17l-.06-.09s-.06,0-.07-.09-.07-.06-.06-.09a2.06,2.06,0,0,1,.14-.17l.13-.17-.11-.19L70,34a1.62,1.62,0,0,1-.13.17s0-.11-.06-.1-.11.14-.14.17l.06.09-.14.18s0-.1-.07-.1,0-.09-.06-.1.12-.12.14-.17-.07-.06-.05-.1.13-.13.14-.17-.07-.08-.05-.1a1.64,1.64,0,0,1,.14-.17l.14-.17a1,1,0,0,1,.05.11s0,.09,0,.1.12-.16.14-.16,0,.11,0,.1a2.07,2.07,0,0,0,.14-.17l.14-.17.13-.17.14-.17a1,1,0,0,1,.14-.17s0,.11,0,.1.11-.17.14-.17,0,.1.05.1.12-.16.14-.16,0-.09-.05-.1a.37.37,0,0,1-.05-.1s.13-.15.14-.17-.07-.06-.05-.1.14-.14.14-.17,0-.08-.05-.1,0-.11,0-.11l-.14.17a.3.3,0,0,1,.05.11l-.14.16S71,32,71,32s.13-.13.14-.17,0-.11,0-.12-.13.16-.15.17,0-.1,0-.11L70.8,32l-.13.17a1.42,1.42,0,0,0-.14.17s0,.09,0,.11.06.08,0,.11-.11.12-.13.16a.64.64,0,0,0-.05-.1,2.12,2.12,0,0,0-.14.17,1.11,1.11,0,0,0-.14.17s0,.1.05.11.06.08,0,.11-.12.12-.14.17,0-.06-.05-.11-.06-.08,0-.1.12-.12.14-.17l-.09-.22-.15.17-.14.17a1.94,1.94,0,0,0-.14.17s.06.07.05.11l-.14.17s0-.11-.06-.11-.12.18-.14.18,0-.09,0-.11.14-.16.14-.18-.07-.07,0-.11.13-.13.14-.17-.06-.07,0-.11a1.53,1.53,0,0,1,.15-.17s0,.11,0,.11a1.2,1.2,0,0,0,.14-.17s.11-.12.14-.17-.05-.09,0-.11.14-.14.14-.17,0-.07,0-.11-.12.13-.14.17-.1.12-.14.17l-.15.17-.15.17c0,.05-.11.13-.14.18s0,.09,0,.11-.13.14-.15.18.07.08.05.11a2,2,0,0,1-.15.18l-.3.36-.1-.22s.11-.16.15-.18,0,.12,0,.11l.15-.18s-.06-.09,0-.12.14-.15.15-.17,0-.09,0-.12-.06-.08,0-.12-.14.13-.15.18.06.07,0,.12-.13.13-.15.18l0-.12s0-.11-.05-.12-.13.18-.15.18,0-.12,0-.11a2.34,2.34,0,0,0-.16.18,1.55,1.55,0,0,1-.15.18s0-.13,0-.12,0-.14,0-.12a1.21,1.21,0,0,0-.16.18,1.58,1.58,0,0,1-.16.18s0-.1,0-.12,0-.13,0-.12-.12.14-.16.19l-.33.38s-.1-.05,0-.12a2.14,2.14,0,0,0,.16-.19s-.06-.08,0-.12a2.18,2.18,0,0,1,.16-.19s0,.12,0,.12.13-.17.16-.18,0,.13,0,.12.13-.18.16-.19,0,.14,0,.12a1.33,1.33,0,0,0,.15-.18s.14-.18.16-.19,0,.11,0,.12,0,.13,0,.12l.15-.18a1.45,1.45,0,0,0,.15-.18s-.06-.09,0-.12.12-.13.15-.18a1.26,1.26,0,0,0,.15-.18s-.05-.09,0-.12.13-.13.15-.18l-.09-.25-.15.18a2.3,2.3,0,0,0-.15.18s.06.08,0,.12.06.08,0,.13-.13.16-.15.18l-.16.18,0-.12s0-.12,0-.12-.13.17-.16.19,0-.13,0-.13-.12.17-.16.18,0-.12,0-.12-.13.17-.15.18,0-.11,0-.12,0-.12,0-.12-.13.17-.16.18,0-.14,0-.13a2,2,0,0,0-.16.19s-.15.18-.17.19,0-.14,0-.13-.15.2-.17.19,0-.1,0-.12l0-.13-.33.39,0,.13a.58.58,0,0,1,0,.12s.05.09,0,.13l-.17.19s0-.13,0-.12-.13.17-.17.2l-.08-.26.16-.2a1.38,1.38,0,0,0,.17-.19s0-.11,0-.13-.05-.1,0-.13.16-.16.17-.2-.06-.08,0-.13.16-.16.16-.19,0-.1,0-.13l0-.13.32-.38,0-.13s0-.13,0-.12a1.38,1.38,0,0,0-.16.19s0,.12,0,.13-.14.17-.16.19a2.42,2.42,0,0,0-.16.19s.06.08,0,.13-.15.16-.16.19,0,.1,0,.13.06.1,0,.13-.14.14-.17.2l0-.13,0-.12s-.06-.09,0-.14l.17-.19a2.22,2.22,0,0,0,.16-.19s0-.12,0-.13l-.16.19a2.15,2.15,0,0,1-.17.2s0-.12,0-.13,0-.09,0-.12l0-.13-.17.19s.05.12,0,.13a2,2,0,0,1-.16.2s0-.13,0-.12a1.33,1.33,0,0,0-.16.2s0,.1,0,.13-.14.15-.17.2-.15.13-.17.2.06.08,0,.13-.15.14-.17.21,0-.09,0-.13,0-.13,0-.13-.14.19-.18.21,0-.14,0-.13a2,2,0,0,0-.17.21.84.84,0,0,1-.09-.26s0,.14,0,.13.15-.2.18-.2,0,.14,0,.12.13-.18.17-.2,0,.14,0,.13.15-.17.18-.2,0-.12,0-.13a1.85,1.85,0,0,1,.17-.21l.17-.19a2.07,2.07,0,0,1,.17-.21s.15-.17.17-.19-.06-.11,0-.13-.12.13-.17.2-.13.19-.17.2,0-.15-.05-.13a2.61,2.61,0,0,0-.17.2,2.24,2.24,0,0,1-.17.2s0-.14,0-.12a1.64,1.64,0,0,0-.17.2s.05.11,0,.13l-.17.21s0-.11,0-.13l0-.13s0-.12,0-.12l-.17.21a1.45,1.45,0,0,1-.18.21s0-.12,0-.13,0-.09,0-.13l0-.12-.1.12-.41.13s-.18,0-.21.06c-2.06.62-13.21,2.39-13.33.23,0,0,0-4.13,5.35-7,0,0,0-.08.06-.06s.08,0,.1,0,.07-.15.07-.15.17,0,.18,0,.1,0,.11,0h.12s.09-.08.08-.1-.12,0-.13,0,.1-.09.09-.09h-.27s.07-.08.08-.1H56s-.11.08-.1.1h.15l.12-.09.13-.08s-.17,0-.17,0,.11-.08.12-.09l.13-.09a1.66,1.66,0,0,1,.19,0s.16,0,.18,0-.14.07-.13.09.17,0,.17,0-.11.06-.13.08.15,0,.16,0l.14-.08a.9.9,0,0,0,.13-.08s-.16,0-.16,0,.11-.06.11-.08.11-.07.1-.08a.49.49,0,0,0-.16,0s0-.08.08-.1l.16,0s-.09.07-.08.08.13,0,.14,0,.12,0,.12,0-.09.08-.08.08h.23s.09,0,.11,0l.1-.06-.13,0h-.12s.08-.05.08-.07-.12,0-.13,0l.07-.07.15,0,.14,0,.11,0s.12,0,.11,0l-.16,0-.17,0-.18-.05s.09,0,.09-.06-.16,0-.17,0l.08-.07.19.06s-.1,0-.09.06l.19.06.18,0h.05s0,0,0,.08l.26-.1s.14-.09.17-.09.05.12.14.1a1.77,1.77,0,0,0,.47,0,1.65,1.65,0,0,1,.22-.06s-.24,0-.24,0l.23-.06H59l-.29,0s-.23-.08-.25-.08-.08,0-.12,0l-.16,0A1.49,1.49,0,0,1,58,25s.17,0,.17,0,.11,0,.2,0,.24.05.33.07a2.43,2.43,0,0,1,.25,0c.11,0,.22,0,.32,0L59,25l.28,0,.23-.06h.22l.18-.07s-.09,0-.14,0l-.26-.17c-.06,0-.18-.07-.2-.07l-.26,0s-.15-.14-.21-.15l-.35-.09c-.07,0-.2-.05-.28-.06l-.19,0c-.07,0-.14,0-.2,0s.12,0,.17,0,.16,0,.22,0l.23,0a1.82,1.82,0,0,1,.26,0l.28.06a.45.45,0,0,0-.26-.09l-.33-.14-.2,0,.2,0a1.17,1.17,0,0,0-.2,0L58,24l-.17,0-.16,0-.16,0-.13,0,.3-.06.16,0s-.15,0-.15,0l.16,0L58,24l.16,0,.2,0-.19,0,.2,0-.19,0a1.74,1.74,0,0,1,.2,0l-.18,0-.16,0-.18,0,.15,0-.17,0-.16,0-.16,0s-.09,0-.14,0l.15,0c-.05,0-.08,0-.13,0s-.11,0-.14,0l-.12,0,.14,0,.13,0,.15,0-.13,0-.13,0s.15,0,.14,0l.15,0-.13,0-.12,0-.14,0s.11,0,.12,0l-.13,0-.12,0-.13,0-.13,0-.11,0-.13,0s-.06,0-.1,0l-.13.05.11,0-.13,0s-.12,0-.13.06.11,0,.11,0-.11,0-.12.06-.12,0-.11,0,.12,0,.13-.06h-.11s.12,0,.12-.06h-.11s.12,0,.13-.06l.13-.05-.11,0-.13.05H56l.13-.06h-.11a1.09,1.09,0,0,0-.13.06l-.13.07h-.22l.13-.07H55.6l-.13.08h-.12l.13-.08.13-.07s.07,0,.12,0,.08-.06.13-.07.08,0,.11,0l.13-.07.11,0s.13,0,.13-.06-.11,0-.11,0l.13-.05.11,0,.11,0,.13,0-.1,0-.1,0s-.06,0-.11,0a.8.8,0,0,0-.14.05h-.11l.14-.06h-.11l-.13.07h-.11s-.07,0-.11,0a1.55,1.55,0,0,0-.14.09h-.12l.14-.08h-.12l-.14.09-.14.08s.11,0,.11,0l-.13.08h.11l.11,0h.12l.13-.07h.12l-.13.07h-.12l-.14.08s-.07,0-.11,0l-.12.08s-.07,0-.11,0-.07,0-.11,0l-.11.07h-.09l.11-.07s.07,0,.1,0l.13-.08h-.11l.12-.08.13-.08H55.2s-.09,0-.1,0l.13-.08s-.1,0-.1,0h-.2l-.23.15h-.09l-.1.07h.26l-.1.06h-.09l-.1.06h.08l-.1.06-.09.07s.08,0,.08,0l.09-.06h.09l-.09.06s-.06,0-.08,0-.06.05-.09.06H54.3l.08-.06s-.08,0-.08,0l.09-.06h-.15l.08-.06h.08l.09-.07h-.15l-.09.06-.09.06h-.07s.08-.06.08-.06-.07,0-.07,0,.06,0,.09-.06.05,0,.07,0,.07,0,.09-.06,0,0,.08,0,.07-.05.1-.07h.08l.11-.07h-.09s.1-.07.11-.08h.08s.09-.07.12-.08.06,0,.1,0l.13-.08h-.28s0,0-.09,0l-.12.08h.08l-.12.08h-.08l-.11.07-.1.07s-.07,0-.07,0l.1-.06s-.08,0-.08,0,.09,0,.1-.07.1-.06.11-.07-.07,0-.07,0l-.15,0-.11.06-.1.07s.07,0,.07,0l-.1.06-.09.06-.08,0-.08,0s.1-.05.1-.06l-.08,0s-.09.06-.11.07-.07,0-.09,0-.08.06-.11.08l-.12.08a.62.62,0,0,1-.11.08h-.24s.12-.08.12-.09-.11,0-.12,0l-.14,0a.47.47,0,0,0-.15,0h0c-.18.07-.3,0-.5.11h0l-.08,0h0a16.49,16.49,0,0,0-6,3.18c-4.77,3.87-4.74,11.4-4.74,11.4,1.14,3.66,5.56,5.05,5.56,5.05a25.38,25.38,0,0,0,14.4.11,16.69,16.69,0,0,0,4.75-2.41s.08-.16.1-.17.11.06.15,0,.08-.15.1-.17a1.12,1.12,0,0,0,.1-.18.85.85,0,0,1,.1-.17s.13,0,.15,0,.12.05.15,0a1.17,1.17,0,0,0,.1-.16,1.09,1.09,0,0,1,.1-.17s.12.05.15,0,.06-.14.1-.17l-.29-.08s-.1-.07-.14,0-.07.15-.11.17-.1-.07-.14,0-.08.14-.11.17a.57.57,0,0,0-.11.17,1.07,1.07,0,0,1-.1.17s-.07.16-.1.17-.11-.06-.15,0l.1-.17a1.37,1.37,0,0,0,.11-.18s-.14,0-.14,0,.09-.13.11-.17a.93.93,0,0,1,.11-.17,1.59,1.59,0,0,0,.11-.17s-.13,0-.13-.06.11-.13.12-.17l.26.1a.38.38,0,0,0,.14.05s.09-.16.11-.17.1.06.13,0,.08-.16.11-.17.1,0,.13,0,.11.06.13,0,.07-.14.11-.16.09.06.13,0a1.21,1.21,0,0,0,.11-.17s-.11,0-.13,0l-.13,0s-.08.15-.11.17a.27.27,0,0,1-.13-.06s.12-.15.12-.17-.13,0-.13-.06.12-.13.12-.17-.11,0-.12-.06.09-.16.12-.17.11,0,.12.06.12,0,.12.06-.11.13-.12.17-.12.14-.11.17.11.06.13.05.08-.15.11-.17l.13,0a.51.51,0,0,0,.13,0s.1.07.13,0,.08-.13.1-.17l-.12,0S68,39,68,39s.1-.14.11-.17a.92.92,0,0,1,.11-.17,1.14,1.14,0,0,1,.11-.17s.08.07.12.05-.11.13-.11.17.12,0,.12.05-.11.12-.11.16.12,0,.12,0-.1.13-.1.16.11,0,.13,0,.12,0,.13,0-.09.13-.1.16a1.08,1.08,0,0,1-.09.16s-.12-.06-.14,0a.61.61,0,0,0-.09.16l-.1.16-.2.33s-.14,0-.14,0,.08-.13.09-.16.1-.15.1-.17-.12,0-.14,0l-.27-.09c0,.07-.07.12-.11.17s-.11.15-.1.17.13,0,.14,0-.1.13-.1.16.12,0,.15,0l.15,0s0,.14-.1.17,0,.13-.09.17a.49.49,0,0,1,.15,0s.13,0,.15,0a.6.6,0,0,0,.08-.16l.09-.16a.54.54,0,0,1,.09-.17s.13,0,.15,0,0-.14.09-.16.1.06.14,0a.8.8,0,0,0,.09-.16l.09-.16s.1-.14.09-.16-.14,0-.14,0a.85.85,0,0,1,.09-.16l.09-.16s.1-.14.1-.16-.11,0-.13,0-.11,0-.12,0,.1-.14.1-.16-.11,0-.12,0l.21-.33s.11,0,.11,0-.1.13-.1.17.11,0,.12.05-.11.13-.1.16.11,0,.13,0l.19-.32.1-.16a1,1,0,0,1,.1-.16s.08-.15.1-.16.09.07.11,0a.73.73,0,0,0,.1-.16.79.79,0,0,0,.1-.16s-.11,0-.11,0,.11-.12.11-.16-.11,0-.11,0a.9.9,0,0,1,.11-.17c0-.06.08-.11.1-.16s.07.07.1,0a.77.77,0,0,0,.11-.16s-.1,0-.1,0l.11-.16s.1,0,.1.06-.12.14-.11.16.08,0,.1.05.09.06.1,0a1.63,1.63,0,0,0,.11-.16l.11-.17s.1-.12.1-.16-.1,0-.09,0a1.27,1.27,0,0,1,.11-.16s.08.05.1,0,.08-.16.11-.16.08,0,.1,0-.11.15-.11.17.09,0,.1,0l-.11.16-.1.16s-.07.13-.11.17-.08-.06-.1,0a.94.94,0,0,0-.1.16s.1,0,.1,0a1.62,1.62,0,0,1-.1.16s-.09,0-.11,0l-.1,0s-.07.11-.1.16l-.1.16a1.55,1.55,0,0,0-.1.16s-.09.13-.1.16.11,0,.11,0a1.35,1.35,0,0,1-.1.16l-.11,0s-.08.14-.1.16.11,0,.12,0-.08.13-.09.16a.88.88,0,0,1-.09.16,1.33,1.33,0,0,1-.09.16s-.11,0-.12,0-.06.13-.09.16l.25.08c0-.05.05-.11.09-.16a1.06,1.06,0,0,1,.09-.16s.09.05.13,0,.08-.12.08-.16-.12,0-.12,0,.07-.13.09-.16l.12,0a1.3,1.3,0,0,0,.09-.15l.09-.17a1.37,1.37,0,0,0,.1-.16s-.12,0-.12,0a.8.8,0,0,1,.1-.16s.09,0,.11,0,.06-.14.09-.16.08.06.12,0,.06-.13.09-.15.08.06.11,0,.06-.14.1-.15.08,0,.11,0a.74.74,0,0,1,.11,0l.11,0s.08,0,.11,0,.09-.16.09-.16-.09,0-.11,0-.1,0-.12,0,.1-.14.1-.16-.11,0-.11,0,.11-.15.1-.16l-.11,0S71,37,71,37a1.71,1.71,0,0,0,.11-.16s.08-.12.1-.16-.1,0-.1,0-.1,0-.1,0l.1-.16s.09.05.11,0l.11-.16s-.09,0-.1,0-.09,0-.1,0,.1-.14.12-.16l.12-.17a1.58,1.58,0,0,1,.12-.17s.07.06.09,0,.08-.13.12-.16.08-.15.12-.17.06.07.09,0,.09-.14.12-.17.06.05.1,0,.08,0,.1,0,.11,0,.11,0-.12.13-.12.17l.22.06.12-.17a1.91,1.91,0,0,0,.12-.16s-.1,0-.1,0-.09,0-.1,0-.09,0-.11,0,.12-.14.13-.17-.09,0-.1,0-.11.16-.13.16-.06-.05-.1,0l.13-.16a1,1,0,0,1,.13-.17s.06.05.09,0,.06.06.1,0,.11-.14.13-.17-.1,0-.1,0a1.37,1.37,0,0,1,.13-.17l.13-.17a2.14,2.14,0,0,1,.14-.17s.08.05.1,0,.1-.13.14-.17l.14-.17.14-.17a1.74,1.74,0,0,1,.15-.18s.07.06.11,0l-.15.17s.1,0,.11,0l.11,0,.14-.17s.13-.14.15-.17S74,33.37,74,33.35Zm-16.68-9s.09,0,.14,0a1.39,1.39,0,0,1,.15,0s.09,0,.15,0-.11,0-.15,0-.1,0-.15,0-.1,0-.15,0l-.14,0S57.34,24.34,57.35,24.33Zm-.75,1.16H57l-.1.08h-.17a1.25,1.25,0,0,1-.2,0S56.6,25.51,56.6,25.49ZM70.87,37.12a.22.22,0,0,1-.1,0s.1-.12.1-.16l.1,0S70.89,37.11,70.87,37.12Zm4.58-3.22s-.12,0-.14,0-.12.16-.14.18-.1,0-.13,0a1.88,1.88,0,0,0-.14.18l-.14.18-.14.18-.27.36s.09,0,.14,0,.11-.16.13-.18l.27-.37s.09,0,.14,0,.09-.15.14-.18.09,0,.14,0,.1-.14.14-.18a.45.45,0,0,1-.14,0Zm-.8.08s-.1.14-.14.17.12,0,.12,0l.14-.18S74.7,33.94,74.66,34Zm.25,0c.05,0,.1-.14.15-.18s-.08,0-.13,0-.1.15-.14.17S74.87,34,74.91,34Zm-.17-1.29s.11,0,.11,0,.11-.14.15-.18-.12,0-.11,0Zm-5.29,7s.1,0,.14,0,.07-.12.07-.16-.12,0-.13,0S69.45,39.61,69.45,39.64Zm3.48-6.52.14-.17s.13-.13.14-.17-.07,0-.08-.05-.06-.07-.08-.06a1.17,1.17,0,0,0-.14.16l-.14.17s.09,0,.08.07-.12.13-.14.16.06.08.08.06A1.37,1.37,0,0,0,72.93,33.12ZM56.19,23.64l.13-.05s-.12,0-.11,0l-.13.06Zm3.54,1.43.18-.06-.19,0-.2.05Zm9.58,14.54a1,1,0,0,0-.08.16s.12,0,.13,0,.07-.15.07-.15A.33.33,0,0,0,69.32,39.61Zm3.84-5s.11-.17.13-.17.08,0,.11,0l.12,0,.27-.35-.22,0s-.06,0-.11,0-.12.15-.14.17a1.34,1.34,0,0,1-.13.18s-.08,0-.11,0-.1.14-.14.16l-.13.17a1.62,1.62,0,0,0-.13.17s.1,0,.1,0-.12.14-.12.17.1,0,.11,0,.1,0,.11,0S73,35,73,35s-.11,0-.11,0,.12-.13.13-.17-.11,0-.11,0a1.2,1.2,0,0,1,.13-.17S73.13,34.61,73.16,34.59Zm1-.08s-.09.14-.14.18-.08,0-.12,0a1.2,1.2,0,0,0-.14.17s-.13,0-.12,0,.13-.15.13-.18-.11,0-.12,0,.14-.15.13-.18-.11,0-.11,0l-.14.18a1.78,1.78,0,0,1-.13.17s-.09,0-.11,0-.09.14-.13.17.12,0,.11,0-.13.16-.12.17.08,0,.11,0h.24a1.53,1.53,0,0,0-.13.17h.12a1.78,1.78,0,0,1-.12.18,2,2,0,0,0-.12.17h.25l.13-.17c0-.06.09-.12.12-.17a1.65,1.65,0,0,0,.12-.17s-.12,0-.12,0a2.17,2.17,0,0,1,.13-.18l.13-.18.27-.35S74.16,34.48,74.11,34.5Zm-.4.53-.13.17h-.12l.13-.17a1.3,1.3,0,0,0,.14-.17h.12A1.56,1.56,0,0,1,73.7,35Zm-17-9.11h.16l.15-.08h-.16S56.68,25.92,56.67,25.93ZM69.48,39.3s-.09-.05-.13,0a.74.74,0,0,0-.08.16s.12,0,.13,0,.13,0,.13,0a1,1,0,0,1,.08-.16.73.73,0,0,1,.08-.16s.1,0,.13,0a1,1,0,0,0,.08-.15s-.12,0-.12,0,.09-.12.08-.15-.11,0-.12,0l-.17.31S69.52,39.27,69.48,39.3ZM71.07,33a1.71,1.71,0,0,0-.14.17s0,.08.06.09l.06.09.06.09s-.12.12-.13.16.07.08.07.08l.13-.16a1.61,1.61,0,0,0,.13-.17s-.06-.07-.06-.09a1.63,1.63,0,0,1,.13-.17l.14-.17.06.09s.05.09.07.08l.14-.17.14-.16a1.18,1.18,0,0,1,.14-.17s.06.07.07.08,0,.09.07.08a1.38,1.38,0,0,0,.14-.17s.09-.12.14-.16.12-.16.14-.17,0,.08.07.08l-.14.16s.07.06.07.08,0,.07.07.07.13-.16.14-.17l.29-.33L73,32.08S73,32,73,32s.13-.12.15-.16.13-.12.14-.17-.08,0-.07-.06.13-.13.15-.17-.08,0-.07-.08,0-.09-.07-.08l-.14.16s.07.06.06.08-.13.13-.14.17.08,0,.07.08a1.76,1.76,0,0,1-.15.16s0-.08-.06-.07-.12.15-.14.16,0-.09-.07-.08-.11.15-.14.16,0-.09-.06-.08-.11.15-.14.16,0-.09-.06-.08-.11.14-.14.16-.05-.08-.06-.09,0-.1-.06-.09a2,2,0,0,0-.14.16l-.14.17s-.12.13-.14.16.07.06.06.1-.12.12-.14.17,0-.06-.06-.1-.06-.05-.05-.09l-.14.16Zm.28-.33s.12-.13.13-.17-.05-.09-.05-.1-.13.16-.14.17S71.31,32.64,71.34,32.64Zm1.14.7a1.84,1.84,0,0,0,.14-.17s-.07-.06-.08-.06,0-.08-.07-.08-.1.15-.14.17l.08.07S72.46,33.36,72.48,33.34Zm-3.23-.49.14-.18s-.05-.08,0-.12.13-.12.15-.17-.06-.07-.05-.12.13-.13.15-.18-.06-.07,0-.12l-.3.36s0-.13,0-.12a1.61,1.61,0,0,0-.15.18s.05.08,0,.12-.13.13-.15.18.06.07.05.12.06.07,0,.12.12-.12.15-.18A.36.36,0,0,0,69.25,32.85Zm-12.9-6.91h.17l.14-.08h-.17ZM71,31.53s-.12.17-.14.17,0,.1,0,.11l.14-.17A.54.54,0,0,0,71,31.53Zm-.88.38a.75.75,0,0,0,0-.12A1.47,1.47,0,0,0,70,32s0,.1,0,.12S70.14,32,70.16,31.92Z"></path>
    <path class="cls-4" d="M9.95,21.54l.21,0c.06,0,.16,0,.22,0l.42-.06c-.07,0-.12-.06-.19-.06s-.14,0-.21,0l-.21,0-.21,0-.14,0h.1a2.28,2.28,0,0,0-.23-.06H9.08s.23.05.23.06H9l.23.06h.53Zm2.48.17s-.19,0-.18-.06H12l.13,0-.18,0c-.07,0-.12-.06-.18-.07H12a.85.85,0,0,1-.19-.07h-.5l-.11,0-.21,0-.21,0s-.21,0-.22,0a1.61,1.61,0,0,0,.18.07l.18.06c.05,0,.16,0,.21,0l-.18-.06.21,0,.18.07.18.07s.17,0,.21,0,.12.06.18.07l.2,0,.21,0-.12,0Zm-2.11-.82h.32a2.51,2.51,0,0,1,.25.05c.09,0,.22,0,.32,0L11,20.87l-.25-.05s-.27,0-.32,0-.17,0-.26,0H9.81l.25.05Zm4.74,3.93s-.08-.09-.11-.1-.14,0-.2,0-.19,0-.2,0,.1.09.11.1.18,0,.2,0,.06.08.11.1.18,0,.19,0S15.07,24.83,15.06,24.82Zm-2.71-3.24c.08,0,.1.06.18.07h0l.17.06-.42.06a1.55,1.55,0,0,1,.17.07l-.21,0,.18.08.21,0,.2,0s-.17-.07-.17-.08.18,0,.21,0,.2,0,.2,0-.19-.07-.17-.08l.21,0,.2,0h0l-.12,0-.06,0h.27s-.17-.05-.18-.06l.27,0h.27l-.17-.07c-.07,0-.2,0-.28,0l-.55,0h-.29s.2.05.19.06-.29,0-.29,0l.1,0-.18,0h0Zm3.2,2.57L15,23.77l-.2,0-.2,0a1.64,1.64,0,0,0-.2,0s.14.08.13.1a1.26,1.26,0,0,1-.2,0h-.21s-.08-.08-.13-.1h-.61s.14.07.13.1.13,0,.2,0,.08.08.13.09a1.32,1.32,0,0,0,.2,0,1.44,1.44,0,0,0,.2,0h.2a1.49,1.49,0,0,1,.2,0s.1.09.13.09.14,0,.2,0,.13,0,.2,0,.08.09.12.1S15.49,24.14,15.55,24.15Zm-2.65-3c.07,0,.22,0,.28,0l.28,0,.54,0c-.07,0-.11,0-.19-.05l-.27,0-.28,0-.29,0s-.15-.05-.2-.06l-.29,0,.21.05Zm-1.73.24.21.06.2.06.21.06s.27,0,.28,0-.21,0-.2-.06H12a1,1,0,0,0,.17.07l.21,0s-.14-.06-.18-.07h0l-.18,0-.2-.06c-.1,0-.2,0-.3,0s-.14-.05-.21-.06h-.3A1.53,1.53,0,0,0,11.16,21.41ZM12,22.54s.19,0,.21,0-.09-.06-.16-.08-.17,0-.21,0l-.17-.08-.17-.08a1.46,1.46,0,0,0-.21,0l-.21,0s.19.06.17.08-.19,0-.21,0,.17.07.17.08l.21,0,.17.08c.05,0,.16,0,.21,0l.16.08a.88.88,0,0,0,.21,0S12,22.55,12,22.54Zm1.57-1.28.18.06.17.06c.06,0,.2,0,.26,0L14,21.31l.26,0,.17.06.16.06.25,0c.07,0,.09.05.16.06l.25,0,.24,0-.15-.06c-.07,0-.18,0-.25,0s-.09,0-.16,0a2.36,2.36,0,0,0-.25,0,.85.85,0,0,1-.17-.06,1.26,1.26,0,0,0-.17-.05l-.27,0-.27,0ZM12.74,23h-.2l-.42,0c.06,0,.1.08.16.09s.17,0,.21,0h.21a1.4,1.4,0,0,0,.2,0S12.74,23.06,12.74,23Zm.75.43a.81.81,0,0,1-.14-.09s-.11-.08-.15-.08a1.09,1.09,0,0,0-.21,0h-.21l.15.08h.2c.06,0,.08.08.14.09S13.44,23.46,13.48,23.47Zm.29.18H14l.21,0,.2,0c-.06,0-.08-.07-.14-.08s-.15,0-.2,0-.09-.08-.14-.09-.08-.08-.15-.09-.14,0-.2,0l.14.08h-.2c.06,0,.09.08.14.09S13.71,23.64,13.77,23.66Zm1,.76a.78.78,0,0,0,.2,0s-.12-.08-.12-.09a1,1,0,0,1-.2,0s-.19,0-.2,0l.12.1A1,1,0,0,0,14.79,24.42ZM11,22.52s-.17,0-.21,0l.33.15.42,0-.17-.08-.16-.08S11,22.51,11,22.52Zm-1-.42s.17,0,.21,0L10,22l-.21,0C9.82,22,9.87,22.08,9.94,22.09Zm5.14,2.2L15,24.2h-.21s.14.09.13.1Zm-4.43-2.42.21,0-.18-.06a1.64,1.64,0,0,0-.21,0l-.36,0H9.92l0,0H9.82s.18.05.18.06-.22,0-.21,0,.15,0,.18.07h.21s.15.06.18.06l.21,0S10.4,22,10.4,22h0a1.32,1.32,0,0,1,.2,0l0,0h0l-.13,0h.23l-.11,0Zm6.49,3.36s-.15,0-.19,0-.07-.11-.1-.11a1.07,1.07,0,0,0-.2,0,1,1,0,0,0-.19,0s.1.09.1.11-.19,0-.2,0,.11.08.1.11h.2l.39,0,.19,0S17.19,25.26,17.13,25.23Zm-.28-3.47s-.2,0-.22,0l.11.06s.19,0,.22,0l.22,0s-.13,0-.12-.06.19,0,.22,0-.06-.06-.11-.07-.16,0-.22,0-.18,0-.22,0S16.86,21.75,16.86,21.76Zm2.07,0s-.18,0-.21,0,.1.05.1.07.18,0,.2,0S18.92,21.79,18.93,21.77Zm-3.53-.3.14.06.24,0,.24,0s-.15,0-.14-.06.19,0,.23,0,.22,0,.23,0-.16-.05-.13-.06l.22,0a1.05,1.05,0,0,0,.23,0s-.12,0-.14-.05l-.23,0c-.06,0-.08,0-.15-.06l-.23,0-.24,0a.66.66,0,0,1,.15.06l.14.06-.47.05c.06,0,.1,0,.15.06Zm-2.87.74s-.17,0-.21,0-.12-.07-.17-.08-.15,0-.2,0-.21,0-.21,0l.17.07s.16,0,.21,0a1.19,1.19,0,0,1,.17.07l.17.08.2,0a1,1,0,0,1,.21,0l-.17-.08Zm6.09-.3c.05,0,0,.07.09.07s.15,0,.19,0-.1,0-.08-.07Zm2.5.12.17.15h0l.17,0a1.22,1.22,0,0,1,.16,0s0,.07.05.08l-.16,0s.06.07,0,.08-.17,0-.16,0a.23.23,0,0,0,0,.08s.13,0,.17,0,0,.08,0,.08a1.63,1.63,0,0,0,.16,0s0-.07,0-.09l.16,0,.15,0a.81.81,0,0,0,.16,0s0-.08,0-.09-.06-.07,0-.08l.15,0,.07,0s0,0,.06,0L22.6,22a1.61,1.61,0,0,0-.14-.12.87.87,0,0,1-.13-.11s.15,0,.15-.07,0,0,0,0l0-.06s0-.07-.07-.08l-.15,0,.06.08-.17.08s0,0,.08.06a1,1,0,0,1-.14,0,.36.36,0,0,1-.06-.08s0-.07-.07-.08l-.09,0h0a.55.55,0,0,0-.13-.1.71.71,0,0,0-.13-.11s-.1.08-.14.07.13.07.13.11-.13,0-.16.07h0s-.06-.06-.07-.07-.06-.08-.08-.08-.12,0-.16,0l.15.15s-.16,0-.16,0,.05.07.07.08.06.05.06.07L21,22,21,22s0,.07.06.08Zm-3-.46s.09.06.11.07a1.24,1.24,0,0,0,.21,0s.06.07.1.07l.2,0,.2,0,.19,0,.38-.08s-.05-.06-.1-.07l-.19,0-.39.08s-.06-.06-.1-.07-.15,0-.2,0-.06-.06-.11-.07-.15,0-.2,0,.09.06.11.06Zm-.51.17.21,0s-.11,0-.1-.06l.2,0,.21,0s-.11,0-.11-.07a2,2,0,0,1,.21,0s-.07-.06-.11-.07a1.33,1.33,0,0,0-.21,0l-.21,0-.42.07.23.12C17.56,21.68,17.56,21.73,17.61,21.74Zm.91.1s-.14,0-.2,0,0,.06.09.07.16,0,.2,0S18.57,21.85,18.52,21.84Zm-2.24.38s0-.06-.11-.07-.17,0-.23,0,.07.06.1.06S16.22,22.21,16.28,22.22Zm-2.62.55c-.06,0-.09-.07-.16-.09a1.79,1.79,0,0,0-.2,0s.12.07.15.09S13.6,22.76,13.67,22.77Zm-.73-.13-.21,0s-.2,0-.21,0,.16.06.16.08l.21,0,.2,0a1.45,1.45,0,0,1,.21,0l-.16-.08Zm-.86-.51c.07,0,.19,0,.27,0l-.16-.07L12,22s-.11-.06-.18-.07h-.57l.18.06.17.07h.28C12,22.07,12,22.11,12.08,22.13Zm3.21-.94.15.06.24,0s-.12-.06-.15-.06Zm.36,1.7c.05,0,0,.08.07.08a1.86,1.86,0,0,0,.22,0l.22,0h.22s0-.07-.07-.07-.17,0-.22,0,0-.07-.08-.08,0-.07-.08-.07-.16,0-.22,0l.08.07h-.23C15.62,22.83,15.59,22.89,15.64,22.89Zm-.16-.14a.26.26,0,0,0-.09-.08h-.17l-.12,0H15c-.05,0-.09-.07-.14-.08s-.13,0-.2,0a.49.49,0,0,1-.12-.08h.19l.23,0,.24,0s-.11-.05-.1-.06h-.24l-.47,0s.05,0,.09.06l-.17,0s.15.07.15.08-.19,0-.21,0,.15.07.16.09,0,0,0,0h-.83s0,.06.1.08a1.51,1.51,0,0,0,.24,0h.41s-.18,0-.2,0,.16.08.15.09l-.2,0s-.13-.08-.16-.08l-.2,0-.21,0-.21,0s.16.07.15.08-.2,0-.21,0,.15.07.15.09l.4,0,.15.09.14.09.2,0a.74.74,0,0,0,.2,0s-.15-.07-.14-.09.18,0,.2,0,.18,0,.2,0-.15-.08-.14-.09.21,0,.2,0-.11-.06-.14-.09l-.14-.08h.07v0h.14a.91.91,0,0,1,.2,0l.2,0h.1s0,0,.07.06.18,0,.22,0A.33.33,0,0,1,15.49,22.76Zm-1,.13h0Zm2.15-.94h-.11s-.07-.06-.12-.06l.12,0s-.1-.06-.11-.06l-.22,0-.24,0a1.32,1.32,0,0,1-.23,0c.05,0,.06,0,.12.07a.18.18,0,0,1,.09,0l-.1,0c-.05,0-.1-.08-.15-.09s-.14,0-.2,0a.25.25,0,0,1-.1-.05h.11l.24,0-.13-.07a.82.82,0,0,0-.13-.06l-.24,0c-.05,0-.08-.05-.14-.06s-.17,0-.25,0-.23,0-.25,0l.15.06s.2,0,.24,0a.57.57,0,0,1,.13.06l.08,0-.08,0,.16.08-.2,0,.16.08.2,0,.07,0h-.14s-.22,0-.24,0,.13,0,.12.06h.23l.23,0,.23,0-.08-.05.12,0,.08,0h0l.22,0c.05,0,.05.05.11.07s0,.06.1.07.16,0,.22,0l-.2-.13a2.2,2.2,0,0,0,.23,0Zm-1.71,0c.06,0,.13,0,.2,0s-.12-.07-.16-.08a1.1,1.1,0,0,0-.2,0l-.2,0-.14,0-.05,0-.14-.06h-.52s.17.06.15.07-.22,0-.26,0,.16.05.15.06H14l.14.07h.17l.17.08c.06,0,.1.07.16.08l.19,0s-.13-.05-.14-.08h.06l.12,0a1.13,1.13,0,0,0,.2,0S14.94,22,14.93,22ZM13.51,22s-.21,0-.26,0l.29.13h.19l.16.08s-.2,0-.21,0l.08,0h-.23l-.06,0-.2,0h-.22l-.19,0c.06,0,.1.06.16.08s.13.07.16.08a1.12,1.12,0,0,0,.16.08s.17,0,.21,0,.1.07.16.09.09.07.15.08.14,0,.2,0l-.31-.17s.2,0,.2,0h0a1.18,1.18,0,0,0,.22,0s-.13-.05-.12-.07h.24s-.1-.07-.12-.08-.18,0-.24,0l-.06,0,.19,0,.2,0s-.17-.06-.16-.08.19,0,.2,0-.1-.07-.16-.08a.56.56,0,0,0-.16,0l-.06,0s-.16-.06-.15-.07S13.55,22,13.51,22Zm.09.45-.17-.08h.24a.31.31,0,0,1,.12.07Zm7.85,5.63s.07.1.05.12.18,0,.23,0-.07-.11-.05-.12S21.47,28.09,21.45,28.11Zm-5.68-4.64-.14-.09c-.05,0-.14,0-.2,0s.15.07.13.09Zm-.25-1.06c.06,0,.09.08.15.09s.13,0,.19,0-.09-.08-.15-.08S15.58,22.42,15.52,22.41Zm4.25-.54.19,0,.18,0,.08.08.18,0s-.07-.07-.07-.08a1.48,1.48,0,0,1,.17,0l.18,0-.17-.15-.18,0a1.17,1.17,0,0,0-.17,0,1.32,1.32,0,0,0-.18,0s.1.06.08.07l-.18,0-.19,0-.38.07s0,.07.08.08.15,0,.19,0,0,.07.08.07l.19,0S19.76,21.88,19.77,21.88Zm.46.39,0,0,.1,0s-.08-.06-.06-.08l.18,0s0-.06-.06-.08l-.07-.08-.08-.08-.18,0a.82.82,0,0,0-.19,0s.09.06.08.07-.17,0-.19,0,.08.05.07.08-.17,0-.19,0,.08.06.07.08l.19,0h.06l.13.1S20.22,22.28,20.23,22.26Zm-1.59,2.33-.19,0a.67.67,0,0,0,.11.11s.07.1.1.11.13,0,.19,0l-.1-.11S18.67,24.6,18.64,24.59ZM26,29.64Zm-6.9-3.06c.05,0,.14,0,.19,0s0-.09.07-.11-.16,0-.2,0S19.13,26.56,19.09,26.58ZM36.22,44.36l-.13,0c-.07,0-.12.12-.18.17H36Zm-.24,0-.12,0a2.29,2.29,0,0,0-.19.17l.12,0S36,44.43,36,44.39ZM20.78,22l-.17,0s.08.06.06.08.15,0,.17,0A.24.24,0,0,0,20.78,22Zm1.32,5.56a.68.68,0,0,0,.07.13h.23s-.08-.12-.07-.13S22.14,27.56,22.1,27.59Zm-1.43-5.44-.18,0s.07.05.06.08.16,0,.18,0S20.66,22.16,20.67,22.14ZM32.52,47h-.11l-.12,0h.11Zm.1-.55-.12,0-.14.08s.12,0,.12,0S32.61,46.44,32.62,46.43Zm-.43.25h.11l.14-.06.14-.07-.12,0-.14.06S32.19,46.68,32.19,46.68Zm5.76-21a54.75,54.75,0,0,0-6.77-2.95,29.15,29.15,0,0,0-3.6-.75s-.12.1-.15.11a.53.53,0,0,0-.13.06s-.11.06-.14.06-.06-.1-.07-.11,0-.11-.06-.12l-.13.06a.79.79,0,0,1-.14,0s0-.1-.07-.11-.1.06-.14.06-.05-.1-.06-.12l-.07-.11s.1-.06.13-.06.09-.06.13-.06a.64.64,0,0,1-.08-.11.58.58,0,0,0-.08-.11l-.12.06-.12.06a.37.37,0,0,1-.13.05s-.05-.1-.07-.11-.09.07-.13.06,0-.1-.07-.11-.11,0-.12.06l-.13.06a.66.66,0,0,0-.13.05s.08.09.07.1a1,1,0,0,1-.13.06l-.13,0-.13.05s0,.09.05.1.05.08.05.11-.13,0-.14,0,.06.08,0,.11h0l-.07-.07c-.05,0-.09.08-.14.07a.1.1,0,0,1,0,0s.08,0,.09,0-.06-.07,0-.1.13,0,.14-.06S25,22,25,22l-.28.1-.14.06-.14,0a.56.56,0,0,1-.15,0s0-.1,0-.1l-.14.05-.14,0s0,.09,0,.1-.13,0-.15,0,.06.07,0,.1-.12,0-.15,0l-.15,0s0,0,0,0a.13.13,0,0,1,.07,0l-.27-.25-.15.07s-.12.07-.14.06-.08-.1-.13-.12-.14,0-.15.07.14.09.13.12h0l0,0h0l-.1,0-.09-.09s0-.06,0-.08l.16,0,.13,0h0l.15-.06h0s0,.08,0,.09l.14,0s0-.08,0-.09l.15,0s0,.08,0,.09l0,.1.15-.05.14,0,.14,0a1.15,1.15,0,0,0,.15,0S24,22,24.06,22s.12,0,.14-.05,0,.09.05.09l.14,0s-.05-.09-.05-.1.12,0,.14-.05a.88.88,0,0,1,.13-.05l.13-.06s0,.1.06.1.1-.06.13-.05l-.12-.19-.13.05a1,1,0,0,1-.13.05s0-.08-.06-.1-.11,0-.13.05.07.08.06.1-.11,0-.13,0a.71.71,0,0,0-.05-.09l-.14,0-.13.06-.12,0-.13-.11s-.12.08-.14.07l.11.1s-.11.06-.14.05,0-.08,0-.09l-.06,0h0l-.06,0h0s0-.08-.05-.08-.12.06-.14,0,0-.08,0-.08a.36.36,0,0,1-.05-.09L23,21.66s0-.08-.06-.08l-.14,0s0,.06.06.08.06.06.06.09l-.14,0s.07.07.05.09-.15,0-.15,0,0,.06,0,.08a.24.24,0,0,0,0,.09l-.15,0-.15,0a.64.64,0,0,0,0,.09s.05.08,0,.09l-.16,0s0-.09,0-.09l-.16,0s0,.08,0,.09.05.08,0,.08h0l-.16,0-.16,0-.06,0s-.05-.07-.08-.08,0,0-.07,0l-.1,0s-.07-.09-.12-.1-.11.07-.16.06-.09-.09-.12-.11a.87.87,0,0,1-.12-.1l.13,0-.1-.17-.17,0h0s-.06-.07-.09-.07l-.16.05s.09.08.12.11l0,0s0,0,0,0,0,.07.05.08v0l-.13,0s0,0,.06.05l-.08,0s0,.05,0,.07l0,0a.29.29,0,0,0,.08.08.69.69,0,0,1-.17,0s0-.07,0-.08,0-.07,0-.08-.14,0-.18,0,0,.08,0,.08a1,1,0,0,1-.18,0h-.08l-.07-.06a.84.84,0,0,1,.17,0l.17-.05-.06,0,.14,0s-.06-.07-.05-.08.16,0,.18,0-.06-.07-.05-.08-.07-.06-.06-.08-.16,0-.18,0,.08.06.06.08-.16,0-.19,0,.07.06.06.08h0l-.22-.18-.17.05-.08,0-.06-.07-.12,0,0,0a.56.56,0,0,0-.13-.1.75.75,0,0,0-.17.05,1,1,0,0,1-.17,0s-.1-.09-.13-.09-.12.06-.17,0-.11-.08-.14-.09a.59.59,0,0,0-.14-.09c-.05,0-.12,0-.17,0l.27.18h0l-.2,0-.21,0-.21,0s0-.07-.08-.07l-.2,0-.07,0a1.33,1.33,0,0,1,.18,0l.18,0-.08-.05h0s-.1-.06-.08-.07h-.07l-.09-.06-.11,0,0,0c-.06,0-.15,0-.21,0s-.05-.07-.1-.07l-.21,0s.11.05.1.07a2,2,0,0,0-.22,0s.1,0,.1.07.11.05.09.07a.94.94,0,0,1,.18,0l0,0a.86.86,0,0,1-.16,0s0,0,0,0-.19,0-.22,0-.18,0-.22,0,.09.05.08.07h-.21s-.07-.07-.09-.07l-.23,0h0s-.13-.06-.14-.08-.19,0-.2,0,.06,0,.11.05l-.21,0s0,0,.07,0h0l0,0h0s-.2,0-.22,0,.11.05.09.07l.45,0,.09.07.08.08.21,0,.22,0s-.09-.06-.07-.07.18,0,.21,0h0a.13.13,0,0,0,.07,0l.19,0a1,1,0,0,0-.15-.09h0a.7.7,0,0,0,.17,0s0,0,0,0l.18,0a1.31,1.31,0,0,0,.14.09l-.08,0-.15,0h0l-.14,0s0,0,.07,0h-.07l.05.06-.1,0s.13.08.13.1-.18,0-.19,0,.09.05.12.08l.09.12h0l-.32.06.26.19c.06,0,.08.09.13.1a1,1,0,0,0,.18,0l.19,0s.09.09.13.1.15,0,.18,0l.18,0,.19,0s-.13-.08-.13-.09.17,0,.18,0-.08-.05-.11-.08h.06s-.05-.07,0-.08a1.22,1.22,0,0,1,.2,0l.2,0s0,0,0,0l-.09,0a.9.9,0,0,0-.18,0s.13.07.13.1l0,0s0,0,0,.05h0l0,0,.13.1s-.17,0-.18,0h0l-.15,0h-.2c-.06,0-.17,0-.2,0s0,.07,0,.08-.19,0-.2,0,0,.06,0,.08l-.1,0s-.1-.1-.12-.1l-.19,0-.19,0h-.05s-.16,0-.21,0h-.15s-.06-.07-.1-.08l.19,0s-.12-.08-.13-.1l-.06,0a.43.43,0,0,1,.13,0c-.06-.11-.12-.21-.2-.31h-.14l-.08,0-.2,0c-.05,0-.08-.08-.14-.09l-.19,0L16,23l-.19,0a1.36,1.36,0,0,1-.2,0s-.09-.08-.14-.09l-.2,0a1.48,1.48,0,0,1,.15.09l-.2,0-.2,0s.14.06.15.09-.19,0-.2,0l.14.09.2,0,.2,0h0l0,0,.22,0h.18l.08.05s.09.08.13.09a1.12,1.12,0,0,0,.19,0l.19,0-.06,0,.18,0c.06,0,.16,0,.22,0s0,0,0,0l-.16,0a1.45,1.45,0,0,0-.19,0s.14.08.13.1l-.14,0h0a.19.19,0,0,0,0-.08h-.22s.07.07.05.08h.15l-.15,0a0,0,0,0,1,0,0c-.06,0-.17,0-.22,0H15.9s0,0,0,0h0l-.2,0c-.06,0-.08-.08-.13-.09a.86.86,0,0,1-.2,0h-.12s0,0,0,0a1.58,1.58,0,0,0-.22,0s.07.06,0,.08-.18,0-.22,0-.19,0-.21,0,0,.08.05.08h.64l.13.1.13.09c.06,0,.15,0,.2,0s0,0,.08.06h0s-.17,0-.21,0,0,.07,0,.08h.21s0,.07,0,.08a1.42,1.42,0,0,0,.21,0s0-.08,0-.08a.17.17,0,0,0,0-.06h0l.19,0,.2,0,.19,0s-.12-.08-.12-.1l.19,0h.11l0,.11h0a1.09,1.09,0,0,0,.12.1.71.71,0,0,0,.12.1l.19,0a1.18,1.18,0,0,1,.19,0,.91.91,0,0,1,.19,0s.07.09.12.1L18,24s-.08-.06-.1-.09h.2l.09.08s.08.09.11.1a1,1,0,0,0,.19,0l.19,0a1,1,0,0,0,.19,0l-.12-.11s-.14,0-.18,0l-.12-.09a.6.6,0,0,1,.18,0l.18,0,.16,0s0,.08,0,.09h.1l0,0s.13,0,.18,0,.07.1.11.11.13,0,.18,0,0,0,0,0h.06s0,.06.06.07l.09,0s0,0,0,0-.16,0-.19,0a.26.26,0,0,0,0,.09l.19,0,.19,0,.19,0s0-.07,0-.08.08,0,.13,0,0,.06.07.06h0l-.21,0s0,.09,0,.1a1.18,1.18,0,0,1,.19,0s0,0,0,0l-.06,0,.05,0a.81.81,0,0,0,0,.08l-.11,0s-.09-.11-.11-.11a1.25,1.25,0,0,0-.17,0,1,1,0,0,1-.19,0s-.07-.09-.11-.11-.15,0-.19,0-.08-.08-.11-.1a1.25,1.25,0,0,0-.12-.11l-.18,0,.11.08L19,24l-.4.05s0,.06,0,.09,0,.06,0,.08h-.12a.19.19,0,0,0-.09,0h-.05s-.09-.1-.11-.1a1.33,1.33,0,0,0-.19,0l-.19,0s.13.09.11.11.14,0,.19,0a.1.1,0,0,1,0,0s0,0,0,0-.17,0-.21,0,0,0,0,0l-.1,0s-.17,0-.19,0,.09.09.1.1.09.1.11.11a1.3,1.3,0,0,0,.19,0l.2,0s-.12-.09-.11-.11.17,0,.19,0,0,0-.05-.06h.07s0,0,0-.05l.07,0c.05,0,.06.1.1.11s.14,0,.19,0h0s0,0,0,0,.17,0,.2,0,0,.07,0,.08H19l.07.07h0l0,0s.1.09.1.11a.79.79,0,0,1-.19,0l-.19,0s.11.08.1.11-.17,0-.19,0a.49.49,0,0,0,.1.11H19l0,.06s0,.07,0,.1.14,0,.19,0,0-.08,0-.1.19,0,.2,0a.12.12,0,0,0,0-.07h0s0,0,0,0l0-.07h-.09s0,0,0,0,.17,0,.19,0,0,0-.07-.07l.19,0a1.14,1.14,0,0,0,.19,0s.07.06.06.07-.17,0-.19,0,0,0,.08.08a0,0,0,0,0,0,0h0v0l-.37.05s.06.11.1.11.17,0,.19,0l0,0h0s0,.08,0,.1-.18,0-.19,0a.14.14,0,0,0,0,.09s-.06.09-.05.1l.21,0s0-.09,0-.1l.2,0a.37.37,0,0,1,0,.1s-.17,0-.19,0,0,0,0,.07h-.11a1.3,1.3,0,0,1-.19,0s-.07-.09-.09-.11-.08-.11-.09-.11a1,1,0,0,0-.2,0l-.19,0a1,1,0,0,1-.19,0s0-.08-.09-.11l.19,0s-.09-.1-.1-.11-.06-.08-.1-.11l-.15,0h0s.05-.08,0-.1l-.2,0-.2,0,0,.1h0v0s0,0,0,.06h.07s0,0,0,0,.1.1.09.11-.17,0-.2,0-.17,0-.19,0,.11.08.09.11-.18,0-.19,0,.1.09.09.11,0,.09.09.11h.19s-.1-.1-.08-.11.17,0,.19,0-.11-.09-.09-.11l.19,0s.07.11.09.11.15,0,.2,0,0,.09.09.11.15,0,.19,0,0,.09.08.11.15,0,.2,0,0,.1.08.11.15,0,.2,0,.07.1.08.12a.55.55,0,0,0,.08.11.91.91,0,0,0,.2,0h.07s0,.07,0,.09l-.2,0,0,0h-.12s.06.1.08.12a.64.64,0,0,0,.08.12h0s0,.09-.07.11h.14v0s.15,0,.19,0-.08-.1-.07-.12h0a.8.8,0,0,0,.18,0h0s0-.08.06-.1l-.13,0v0l0-.07h0s0-.08.06-.1l0-.07.12,0s-.1-.1-.08-.11.16,0,.19,0,.07.08.09.12l0,.06h0l0,.07h-.11a1,1,0,0,0,.08.12l.2,0s0-.06-.06-.09h.07l0,0h.09l.2,0a1.07,1.07,0,0,0,.2,0s0-.05-.06-.09h0l.2,0,.2,0a.85.85,0,0,0,.2,0s0,0,0,0h.13l.21,0h.05s-.18,0-.2,0,0,.08,0,.11,0,.09-.05.1.17,0,.2,0,0-.08,0-.1.16,0,.2,0l0,0h-.09l0,.07s0,.07,0,.09H22l.06.08h0l0,0,.21,0,.16,0s0,.05,0,.06-.08.11-.05.11l.21,0h0l.17,0a.33.33,0,0,1-.05.1s-.07.11-.05.11a2,2,0,0,0,.21,0h.05s.1.08.08.1-.18,0-.2,0l-.18,0s.08-.1.05-.11-.18,0-.21,0,.07-.11,0-.11l-.2,0a1,1,0,0,1-.21,0s.05-.09.06-.11a.82.82,0,0,0,.05-.1l-.21,0-.2,0a.09.09,0,0,0,0,.06h0l-.2,0-.21,0-.2,0a1.07,1.07,0,0,1-.2,0s0-.06-.06-.09l.14,0s-.09.09-.06.11l.21,0s0-.09.05-.1.16,0,.2,0,0-.08.05-.11,0-.08.05-.1-.16,0-.2,0a.37.37,0,0,0,.05-.11l-.2,0s0,.09-.06.11-.16,0-.2,0,0,.09-.06.11-.16,0-.2,0,0,0,0,0,0-.09-.07-.11-.16,0-.2,0,.08.1.08.12a.51.51,0,0,1,.08.12l-.16,0s0-.07,0-.08l-.2,0-.2,0c-.05,0-.16,0-.2,0s0,.08-.07.11-.09.09-.06.11l.2,0s0-.1.07-.11.15,0,.2,0-.08.09-.06.11l.13,0a.57.57,0,0,0,.07.11s.05.11.08.12l.2,0s-.09-.11-.08-.12l.21,0a.44.44,0,0,1,.08.12s-.19,0-.21,0,.06.11.07.13a1.86,1.86,0,0,0,.21,0l0,.09,0,0h-.06l0,0s0,0,0,0h0l0,.06s.19,0,.22,0a.14.14,0,0,1,0-.08,1.13,1.13,0,0,0,.21,0s0,0,0,0h.16a1.41,1.41,0,0,0,.21,0s-.07-.12-.07-.12-.1-.12-.09-.13.18,0,.21,0a.73.73,0,0,0,.08.13h.21a1.15,1.15,0,0,0,.22,0l.07.1s0,.06,0,.07h.07l.06.09h.41s0,.05,0,.06.21,0,.21,0,0,.08-.06.11l-.07.11.43-.06.07-.11a.44.44,0,0,1,.05-.1h.09s.07.11.1.14h-.22s0,0,0,.07l-.12,0,0,.06h0s0,0,0,0l0,0a.68.68,0,0,1,0,.09h-.09s-.07-.12-.08-.13a1.17,1.17,0,0,0-.23,0,1.28,1.28,0,0,0-.22,0h0l-.14,0-.22,0-.21,0s.07-.1.06-.11l-.21,0-.21,0-.08.13h0s0,0,0,0l0,.06h.08s0,0,0,0-.22,0-.22,0,0,.12.06.13.17,0,.22,0,.19,0,.22,0-.06-.11-.07-.13l0-.06.15,0s-.08.1-.07.11l.21,0s.05-.1.06-.11l.22,0h.06s.08.09.07.13.19,0,.23,0h.18l0,0s-.2,0-.22,0-.05.09-.07.11l-.07.12-.34,0s0,0,0,0-.18,0-.23,0,.09.1.06.12h0l0,0h0s0,0,0,0-.2,0-.23,0,.07.1.05.12a.27.27,0,0,1,.12,0,0,0,0,0,0,0,0l.21,0s.06-.11.07-.12l.21,0a1.47,1.47,0,0,0,.22,0s0-.09.07-.11.19,0,.22,0a.89.89,0,0,0,.06-.12.38.38,0,0,1,.06-.11h.21l-.05.08-.07.12s0,.09-.06.11l-.22,0-.21,0s-.07.1-.07.12l.21,0,.22,0s-.07.1-.07.12h-.45s-.2,0-.23,0,.07.1.05.13,0,.11.05.13h.24s-.07-.12-.06-.12.2,0,.23,0,0,0,0,.07v0h0a0,0,0,0,0,0,0H23s0-.05,0-.08a.42.42,0,0,1,.06-.09,1.22,1.22,0,0,1,.22,0s-.08.11-.07.11l.22,0s0-.1.07-.11a.44.44,0,0,1,.13,0s0,.1.05.12h.17a.19.19,0,0,1,0,.07,1.46,1.46,0,0,1-.22,0l-.22,0a1.49,1.49,0,0,1-.22,0,1.25,1.25,0,0,0-.21,0s0,.11-.07.11l.22,0s.2,0,.22,0-.09.11-.07.11a1.65,1.65,0,0,0,.22,0,2,2,0,0,1,.23,0s-.09.11-.06.11a1.35,1.35,0,0,0,.23,0s0-.1.06-.11l.23,0s0,0,0,0a.4.4,0,0,0-.12,0l0,.12,0,.08s-.07.09-.05.11l.25,0,.14,0s.12,0,.09,0,0,.08-.06.11v0h-.22s0,.11,0,.12h0l0,.06a1.07,1.07,0,0,0-.07.11l.13-.06h.13s0,0,0,0l0,0h.2l-.05.08-.07.11a.46.46,0,0,0-.07.11s.15-.08.16-.08-.09.11-.07.11.14-.08.16-.08-.09.11-.07.11.13-.09.15-.08-.09.12-.07.11l.15-.08.15-.08s-.08.1-.07.11-.11,0-.14.08a.71.71,0,0,0-.08.11l.15-.08.15-.07.07-.12,0-.06H25l-.06.09-.14.22s.13-.08.15-.08-.08.11-.08.12l.14-.08s.06-.1.07-.11l0,0,.16,0s0,0,0,0l0,0h0l0,.06.08,0h0l.05,0s0-.09.07-.12l.14-.08s-.07.11-.06.12l.14-.09s-.08.11-.07.12.13-.09.13-.09,0,.1-.06.11,0,.09-.07.12-.11.05-.13.08h0l-.21,0,0,.23.21,0,.21,0s0,.1,0,.11l.2,0s0-.11,0-.11h0l.17,0h.1s0,.08-.06.12,0,.08-.06.12-.1.06-.13.08a.9.9,0,0,0-.06.12l.14-.08.14-.09s0-.1.05-.12l.09-.06h0s-.06.09,0,.1l-.13.08a.54.54,0,0,0-.06.12.88.88,0,0,0-.06.12l0,0s0,0,0,.08,0,.1,0,.11l.2,0s0-.1,0-.11l.19,0a1,1,0,0,0,.19,0,.05.05,0,0,0,0,0l.08-.06.06,0h0s0,0,0,0h0s-.06.11-.05.12S27,30,27,30s0-.08,0-.12l0,0h0v.09L27,30a.24.24,0,0,0,0,.1h-.08a1.37,1.37,0,0,0-.19,0s0,.1,0,.11l.19,0h.05l-.07.16.13-.08s0-.07,0-.1h0s0,.09,0,.11,0,.08,0,.11l0,.11s14.39,4.71,14.39,8a4.77,4.77,0,0,1-1.55,3.24l-.1,0s-.12.21-.13.22-.09.17-.15.22-.08,0-.12,0-.11.18-.15.21-.07,0-.13,0-.12.18-.16.21-.1,0-.13,0-.13.16-.18.21l-.19.2-.21.21-.43.39s-.15,0-.13,0,.2-.16.22-.19-.15,0-.13,0,.19-.16.21-.19-.12,0-.13,0l-.14,0-.21.2-.21.19a.71.71,0,0,1-.14,0l-.13,0s-.2.16-.21.18.14,0,.13,0l-.21.18s.1,0,.13,0,.14,0,.13,0-.18.15-.21.18l-.12,0-.13,0s.19-.16.2-.18l-.12,0-.2.18-.19.17s.12,0,.12,0l-.18.17-.19.16s-.11,0-.12,0-.11,0-.12,0,.17-.13.19-.16-.14,0-.12,0,.14-.12.18-.16-.13,0-.12,0l-.18.16-.18.16s.13,0,.12,0-.16.13-.18.16-.16.12-.17.14.1,0,.12,0-.13.13-.17.14a.23.23,0,0,1-.12,0s.17-.13.17-.14-.12,0-.12,0-.12,0-.12,0l.17-.14-.12,0a.3.3,0,0,0-.12,0s-.08,0-.12,0l-.17.15.12,0,.12,0s-.15.11-.17.14.13,0,.12,0l-.17.13-.12,0a.3.3,0,0,0-.12,0l-.16.13a.9.9,0,0,0-.16.14l-.12,0-.12,0-.16.13-.3.22-.15.1s.12,0,.12,0l-.15.1.12,0,.12,0,.15-.1.15-.11.12,0s-.15.1-.15.11.13,0,.12,0-.12.08-.15.1l-.15.1s-.08,0-.12,0l-.14.09-.11,0,.14-.09-.12,0-.14.08s-.07,0-.12,0l-.14.07s.12,0,.12,0l-.13.07h-.12l.13-.07-.11,0,.14-.08s-.09,0-.12,0l-.13.06-.13.07.11,0-.13.07h.11l-.13.05-.12,0-.12,0-.13,0h.11l-.12,0h-.22l-.1,0h.11l.12,0,.12,0,.13,0H32l-.12,0h-.22l.1,0h-.12l-.1,0-.1,0h-.11l-.11,0,.1,0-.11,0,.1,0,.1,0-.11,0,.1,0,.2.07h.46l.12,0h.22l.13,0h.21l.12,0,.13,0h.21l.14-.08s.07,0,.12,0l.15-.11s.07,0,.12,0l.15-.1s.12,0,.12,0-.14.08-.15.09-.08,0-.12,0-.12.09-.16.11-.07,0-.11,0-.11.08-.15.09-.08,0-.11,0l-.13.07L33,47l-.1,0-.12,0-.11,0-.12,0-.13,0s.11,0,.11,0l-.12,0-.12,0h.22l.12,0,.12,0,.1,0,.11,0,.09,0,.09,0-.57.05h.55l.09,0,.13,0,.13-.06a1.25,1.25,0,0,1,.15-.09s.08,0,.12,0l-.3.18s-.12,0-.13.05.1,0,.1,0l-.13,0-.09,0-.1,0-.11,0s.09,0,.09,0h-.1s.09,0,.09,0-.1,0-.1,0l.08,0,.09,0h.11l-.09,0,.11,0,.12,0,.14-.06h.07l-.08,0,.08,0-.11,0h.08l-.09,0s-.06,0-.1,0l-.11,0h.23l.09,0,.07.08.08.15s.24.09.27.08l-.06,0,0,0,.08,0-.15-.14v0l-.1-.08,0,0h0l.16-.09s.23.24.27.23.15-.09.17-.1h0l-.14.09.15-.05-.16.08-.14.09.14-.06c.05,0,.13.13.18.11s.16,0,.18,0l.13,0,.13,0,.13,0,.13,0,.12,0-.12.06.12,0,.12,0,.11-.08,0,0,.05,0,.11-.07.06-.05.05,0-.2.15-.1.07h0l-.12.08h0l-.09,0-.12.06.12,0L35,47.9l.12,0-.05,0-.13,0-.13,0h0l-.07,0h.12l0,0h0l.14,0,.14,0s.08-.06.12-.07l.13,0-.11.06.13,0,.11-.06h.25s.07,0,.1-.05h.13l-.11.05h.13l.11,0,.11,0h-.13s.12,0,.11-.05h-.21l.11-.06s.08,0,.11,0a.38.38,0,0,0,.1,0,.46.46,0,0,0,.11,0l.06,0,.06,0h.11l-.09.06h0l0,0s-.1,0-.13,0l-.12.08h.13l-.12.07-.12.06h.25l-.08,0h.38l.15-.08h.07L37,47.7h.13l.09,0h.1l-.13.07H37l-.12.06h-.14l-.11.05h.56l.13,0h-.16l.13-.06h.15l.14-.06.14-.06h0l-.1,0,.15,0,.09,0h0s-.13.06-.13.07.15,0,.15,0-.13,0-.14.06-.14,0-.14,0,.13,0,.15,0l.29,0,.13-.07.14-.08h-.15l.14-.09,0,0h.25l.11-.06h0s-.15.07-.15.08h.07l-.09,0s-.1,0-.14,0l-.14.07h.14l.29,0s.1,0,.15,0l.16-.07H39l.17-.07h.17l.17-.09.18-.11a1,1,0,0,1,.18,0s-.18.1-.19.11.18,0,.18,0-.18.1-.19.12a1.63,1.63,0,0,0-.18.1s.16,0,.18,0l.37,0,.21-.1.22-.09s-.21,0-.21,0l.22-.09.23-.09.2,0,.19,0a1.28,1.28,0,0,1-.2.13l.18,0a1.4,1.4,0,0,0,.19-.14c.05,0,.13,0,.17-.05s.13-.14.17-.17a13,13,0,0,0,6-3.24,7.65,7.65,0,0,0,1.69-2.63C50.33,38.46,50.64,32.11,38,25.73ZM22.22,26.79a.55.55,0,0,0-.14,0v0a.71.71,0,0,1,.16,0S22.23,26.77,22.22,26.79Zm11.7,21h0Zm0-.06,0,0-.23-.14Zm.58.1h0l.14,0ZM35.72,45s-.16.13-.17.15h-.23l.17-.14h.11S35.73,45,35.72,45ZM32.6,46.48l-.12,0-.14.07s.13,0,.12,0S32.59,46.5,32.6,46.48Zm1.17,1.1,0,.07.16.13S33.79,47.57,33.76,47.58ZM23.43,21.92h0Zm.14-.07s-.09-.11-.14-.12-.13,0-.14.07.14.09.14.12S23.55,21.87,23.57,21.85ZM34,47.78h0ZM33,46.47l-.12,0-.14.08s.08,0,.12,0Zm-.64.25Zm4,1.21a.46.46,0,0,1-.11,0l-.13,0-.11,0h.13l.13,0,.11,0,.11,0Zm-.13,0h-.13l-.11,0h.13S36.3,47.92,36.29,47.91Zm.64,0h-.27l-.11,0a.82.82,0,0,1,.13,0H37l.12,0S36.95,47.9,36.94,47.89Zm.9,0-.13,0,.15,0,.12,0Zm-1.67-.05h-.11l-.1,0h.11ZM18.49,26.16s0-.1-.08-.11a1.07,1.07,0,0,0-.2,0l-.19,0,.08.11s0,.09.07.11.17,0,.19,0,0,.1.07.12.15,0,.2,0l-.07-.12A.46.46,0,0,0,18.49,26.16Zm2.85,1.11.22,0s0-.1.07-.11.17,0,.21,0,0-.09.06-.11l-.2,0-.21,0a1.35,1.35,0,0,0-.21,0s0,.09-.06.11l.21,0S21.32,27.26,21.34,27.27ZM36.27,47.76h-.12l-.11,0-.11,0h.12l.11,0ZM17.33,24.37l.24,0,.2,0s0-.07,0-.08-.18,0-.2,0,0-.08,0-.08l-.21,0h0l-.19,0-.19,0s-.16,0-.19,0,.13.08.11.1-.19,0-.2,0,.09.09.11.11.12.09.12.1h-.2a1.2,1.2,0,0,0-.11-.1s-.14,0-.19,0-.13,0-.2,0-.08-.09-.11-.1-.14,0-.2,0l-.39,0,.23.2c.06,0,.13,0,.19,0s.06.09.11.1l.19,0-.11-.1.2,0,.19,0s.1.09.11.1a.56.56,0,0,0,.11.1l.19,0,.19,0,.19,0s-.09-.09-.11-.11l-.11-.1s-.11-.08-.11-.1.18,0,.2,0a.7.7,0,0,0,.19,0ZM31.49,47l.11,0,.1,0,.1,0h.12l-.1,0-.11,0-.1,0Zm.78.06h-.1l-.13,0,.11,0Zm5.84.86S38,48,38,48a1.26,1.26,0,0,1-.13,0l-.14,0,.14,0L38,48l.13,0,.13-.05S38.15,47.9,38.11,47.92ZM31.92,46.8h.22l.26-.09h-.23Zm-.26.06h0Zm.47.25s.12,0,.12,0h-.11l-.12,0-.12,0,.1,0,.11,0,.12,0Zm6.38.76h-.15a.76.76,0,0,1-.12.06l.13,0h.14l.14,0,.15-.06h-.15Zm-3.77,0,.13,0,.12,0-.12,0Zm-1.62-.36.08,0h.07l-.22,0Zm-.87-.41h0Z"></path>
    <path class="cls-5" d="M20.81,7s0,.14,0,.14.18.11.19.09a.79.79,0,0,0,0-.13Zm1,1.11a1.42,1.42,0,0,1,.19.09s0,.12,0,.13a.44.44,0,0,0,0,.12l.19.09.19.09s.15.07.18.08,0-.12,0-.12V8.49s0-.12,0-.12.17.07.19.07a.69.69,0,0,0,.18.09s0-.12,0-.13.16.08.19.08,0-.09,0-.13l-.19-.08-.19-.08s-.15-.08-.19-.08,0,.12,0,.13-.17-.1-.19-.09,0,.1,0,.13,0,.12,0,.13a1,1,0,0,1-.19-.09s0-.12,0-.12-.15-.06-.19-.09-.14,0-.19-.09,0-.09,0-.13-.15-.06-.19-.09l-.37-.18v.25c.06,0,.15.05.2.09s0,.1,0,.12l.19.09a1,1,0,0,0,0-.12A.89.89,0,0,1,21.83,8.14Zm-1.41-2a2,2,0,0,0,.19.1l.2.09.2.1s0-.1-.05-.14-.16-.05-.19-.09,0-.1-.05-.14,0-.1-.05-.14-.14-.05-.19-.09a1,1,0,0,1,.06.14l-.2-.1s0,.1.05.14S20.37,6.08,20.42,6.12Zm1,1.19s.15.05.2.09c0-.18-.07-.36-.12-.53l-.19-.09-.19-.1a1.92,1.92,0,0,0-.19-.09s.06.13,0,.14a.77.77,0,0,1-.19-.1.84.84,0,0,1-.19-.09s0-.1,0-.13a.84.84,0,0,0-.19-.1l-.19-.1a1.11,1.11,0,0,0-.2-.1s.06.12,0,.14.13.06.19.1,0,.1,0,.14.16.07.19.1l.18.1.2.1.19.1S21,7,21,7s.15.06.19.09.14.05.19.09S21.36,7.28,21.38,7.31ZM20.06,5.6s0,.09.06.14.16.06.19.1a.77.77,0,0,1-.05-.14.45.45,0,0,0-.06-.14,2.09,2.09,0,0,0-.2-.11,1.55,1.55,0,0,0-.19-.1s.07.15.06.14ZM18.78,3.73s-.17-.11-.21-.12l.2.32.42.22L19.1,4A1.34,1.34,0,0,1,19,3.84S18.81,3.73,18.78,3.73Zm.83.65.2.1s-.1-.15-.09-.15.18.1.21.1,0-.1-.09-.15-.18-.08-.21-.11a1.21,1.21,0,0,1-.1-.16,1.58,1.58,0,0,0-.1-.16l-.22-.11A1.51,1.51,0,0,0,19,3.64s.13.16.1.16-.18-.11-.22-.12.12.15.11.16l.22.12s.08.14.09.15.17.08.21.11S19.59,4.36,19.61,4.38Zm.47.89S20,5.14,20,5.13L19.81,5l-.4-.21s0,.1.07.15.16.08.2.11a1.42,1.42,0,0,0,.2.1Zm2.78,4.48s0,.08,0,.12.17.05.19.08-.05.08,0,.11.16,0,.19.08-.06.08,0,.12.16,0,.19.08,0,.1,0,.12-.06.1,0,.11l.18.08.19.08s.15.07.18.07,0-.11,0-.11.14.08.19.08,0,.08,0,.12,0,.1,0,.11l.19.07.19.08a1,1,0,0,0,.18.07s0-.1,0-.12l0-.12,0-.12s.15.07.18.07a.94.94,0,0,0,0-.12l-.18-.07-.18-.07s0,.11,0,.12l-.18-.07a.82.82,0,0,1-.18-.07s0-.11,0-.12,0-.1,0-.12-.16-.06-.19-.07l-.18-.07a1,1,0,0,1-.18-.07s0-.1,0-.12,0-.12,0-.12a1,1,0,0,0-.19-.08l-.18-.08a1.54,1.54,0,0,1-.19-.08s0-.08,0-.12l.18.08s0-.11,0-.12,0-.08,0-.12-.17-.07-.19-.08l-.37-.17a1,1,0,0,0,0,.12s0,.12,0,.12-.15-.09-.19-.09-.15-.08-.19-.08,0,.11,0,.11-.16-.08-.19-.08,0,.1,0,.12-.06.08,0,.12l.19.09s0-.11,0-.12.15.09.19.09,0-.11,0-.12l.19.08s0,.11,0,.12S22.84,9.71,22.86,9.75Zm-.73.31L22,10l0,.11s-.05.08,0,.11.17.07.18.09-.06.08,0,.11.15.06.19.09l0-.12s.05-.07,0-.1.06-.08,0-.12Zm.77,2.7s0,.09-.07.1.13.08.19.08,0-.09.08-.1S22.94,12.76,22.9,12.76Zm.66.15s0-.09.07-.11-.14-.07-.2-.08,0,.1-.07.1S23.52,12.91,23.56,12.91Zm2-5s0,.12,0,.15,0,.12,0,.14a1,1,0,0,0,.17,0,1,1,0,0,1,.16,0s0,.12,0,.14l-.17,0s0,.12,0,.14-.17-.06-.17,0a.58.58,0,0,0,0,.14s.13,0,.17,0,0,.12,0,.14.16,0,.17,0,0-.09,0-.14l.16,0,.17,0a.68.68,0,0,0,.16,0,.77.77,0,0,0,0-.15s0-.13,0-.14l.16,0,.16,0a.44.44,0,0,0,0-.15l-.08-.29-.16,0s-.13,0-.16,0,0-.12,0-.14,0-.13-.05-.15-.14,0-.16,0a.57.57,0,0,1-.16,0s0-.13-.06-.15-.13,0-.16,0a.65.65,0,0,1-.05-.14s0-.14-.06-.16-.12,0-.17,0l.11.29s-.16-.06-.17,0,0,.12.05.15.05.12,0,.15-.15,0-.17,0,0,.12,0,.15ZM23.3,11s0-.08,0-.11l0-.11-.19-.08L23,10.59s0,.1,0,.11a.49.49,0,0,0,0,.11s0,.07,0,.11.13.08.18.08,0-.11.05-.11S23.29,11,23.3,11Zm.47-.07s0,.1,0,.11l.18.08S24,11,24,11,23.8,10.9,23.77,10.9Zm-3.7-6.73a1,1,0,0,1,.1.15,1.62,1.62,0,0,0,.09.15l.2.1a1.7,1.7,0,0,1,.21.09,1.57,1.57,0,0,1-.09-.15.69.69,0,0,0-.09-.15l-.21-.09s-.06-.12-.09-.15S20,4.07,20,4s-.19-.11-.22-.1a1.18,1.18,0,0,0,.11.16S20,4.15,20.06,4.18Zm1.53,1.69s-.16-.09-.2-.08.08.13.06.14a1.43,1.43,0,0,1-.19-.08s0-.13-.06-.15a2,2,0,0,0-.2-.09l-.19-.09-.2-.1s.09.14.07.15-.17-.11-.2-.09.08.12.06.14l.4.19.06.14s.05.14,0,.14l.2.09.19.09s-.06-.14,0-.14.16.08.19.09.17.09.2.08-.08-.13-.05-.15.18.1.19.09-.05-.11-.06-.14S21.77,6,21.78,6,21.62,5.88,21.59,5.87Zm3.14,1.92s.06.12,0,.14-.15-.06-.18-.06.06.13,0,.14A.71.71,0,0,1,24.45,8s0-.12,0-.14-.17,0-.19-.06a.44.44,0,0,1,0-.14l0-.15-.37-.12.09.28s0,.1,0,.14a1.26,1.26,0,0,0,.19.07.73.73,0,0,1,.18.06s0,.12,0,.14a1.69,1.69,0,0,0,.18.07l.18.06.18.06s0-.13,0-.14.16.07.17.05,0-.12,0-.14-.06-.12,0-.14S24.75,7.78,24.73,7.79ZM23.12,6.12s-.14,0-.19-.07,0,.11.07.14.15,0,.19.07S23.16,6.16,23.12,6.12Zm1.79,1.72s.15.06.17.05-.06-.13,0-.14l-.17-.06S24.93,7.82,24.91,7.84ZM22.33,5.48l.2.07s-.08-.12-.08-.14l.19.07a1.17,1.17,0,0,0,.19.06s-.09-.12-.08-.14.15,0,.19.07-.05-.13-.09-.15-.15,0-.19-.06a1.16,1.16,0,0,0-.19-.07L22.08,5l.17.28S22.28,5.44,22.33,5.48Zm1.55,1.27s.14,0,.19.06,0,.11.06.14a.9.9,0,0,0,.19.06s-.07-.14-.06-.15a1.21,1.21,0,0,1,.18.05L24.6,7a1.37,1.37,0,0,1,.06.14l-.18,0A.67.67,0,0,0,24.31,7s.07.13.05.14-.16-.07-.18-.05.07.12.05.14-.17-.07-.18-.06.06.12,0,.14l.18.06a.81.81,0,0,1,.18.06s0,.12,0,.15.14,0,.18,0-.06-.13,0-.14.17.07.17.05a.51.51,0,0,0,0-.14l-.05-.15-.06-.15a.91.91,0,0,0,.18.05S24.79,7,24.79,7a1.08,1.08,0,0,1,.18,0l.17,0L25,6.81l-.17,0-.18,0-.18,0s.08.13.06.15a1.48,1.48,0,0,1-.18-.05l-.18-.06-.37-.11S23.84,6.72,23.88,6.75ZM20.74,4.82a.83.83,0,0,1,.09.15,1.34,1.34,0,0,0,.08.15l.2.08s0,.11.07.15,0,.11.07.14.14,0,.2.08l-.15-.29s.18.1.2.09-.07-.13-.08-.15l-.2-.09S21.15,5,21.14,5s.19.09.21.08a1,1,0,0,0-.09-.15,1.12,1.12,0,0,0-.2-.09l-.2-.09a1.48,1.48,0,0,1-.2-.09S20.71,4.78,20.74,4.82Zm2.62,8s-.14-.08-.19-.08,0,.09-.08.1.15.08.19.08S23.32,12.83,23.36,12.82ZM25,7.75s.15.06.18,0a1,1,0,0,0,0-.14.8.8,0,0,0-.17,0S25.06,7.74,25,7.75ZM20.39,5l.2.1a1.34,1.34,0,0,1,.2.09L20.71,5l-.2-.09-.21-.1s-.19-.1-.2-.1.09.13.08.15Zm.48.33s.15.06.2.09,0-.11-.07-.14-.15-.06-.21-.09S20.83,5.29,20.86,5.32Zm.88-.07.2.08s-.1-.13-.08-.14.17.08.2.07,0-.11-.09-.15-.15,0-.19-.08S21.61,5,21.58,5s.09.13.08.15S21.48,5,21.46,5l.08.15ZM23.57,6.4s-.08-.13-.07-.15-.16-.08-.19-.07.08.13.07.15S23.55,6.41,23.57,6.4Zm-.38-.13s0,.11.06.15.14,0,.18.07-.07-.12-.06-.15ZM22,6a1.11,1.11,0,0,1,.19.08l.2.08s.18.09.19.08-.09-.13-.06-.14l-.2-.08s0-.11-.06-.14-.14,0-.2-.08,0-.12-.07-.14l-.19-.08s.08.13.07.14-.18-.09-.2-.08.08.13.07.14.08.13.06.14S21.95,6,22,6Zm1-.44-.19-.07a1.5,1.5,0,0,0,.08.16l.2.06s0,.13.07.15a1.25,1.25,0,0,0,.19.06l.19.07.18.05.37.11s0-.12-.07-.15l-.18,0-.37-.11s0-.12-.08-.15-.14,0-.19-.06,0-.12-.08-.15-.14,0-.19-.06A.51.51,0,0,1,23,5.6Zm.12,6.85s.17.06.2.08.14.09.18.08.06-.08.08-.1.08-.09.07-.11-.17,0-.19-.07,0,.09-.07.1-.18-.09-.19-.08A.33.33,0,0,0,23.12,12.45Zm.21-3.64s-.15-.08-.18-.08,0,.11,0,.12,0,.11,0,.13a.83.83,0,0,0,.18.07l.19.08s0-.12,0-.12.15.07.18.07,0-.11,0-.13a1.86,1.86,0,0,0-.19-.08Zm.54,4.35-.2-.08s-.15-.09-.19-.08,0,.09-.08.1-.1.07-.08.1a1.26,1.26,0,0,0,.19.09s.06-.1.08-.1.15.08.2.08-.1.07-.07.1a1.05,1.05,0,0,0,.19.09s.07-.09.07-.11.09-.08.08-.1A1.67,1.67,0,0,0,23.88,13.16ZM22.34,7a1,1,0,0,0,0-.14s-.15-.05-.2-.08.07.13.05.14Zm.68,0,.19.08.19.07s.17.08.19.07,0-.12,0-.14l-.19-.08s0-.1-.05-.14l-.18-.07-.19-.08a.91.91,0,0,1-.19-.07s-.15,0-.19-.08,0-.11-.05-.14l-.19-.08s.07.14.06.14a1.18,1.18,0,0,1-.19-.08L22,6.38s.07.12.05.14-.17-.09-.19-.08a.89.89,0,0,0,0,.14l.19.09.19.08.19.08s-.06-.13,0-.14a2,2,0,0,1,.19.07l.2.08s.06.12,0,.14-.17-.08-.19-.08a1.05,1.05,0,0,0,0,.14s0,.11,0,.14l.19.07.2.08,0-.14S23,7.07,23,7.06ZM33,44l.11-.08-.09,0s-.07.06-.11.08ZM23.28,11.87s.19.06.19.08.06-.07.06-.11l-.19-.08A.59.59,0,0,0,23.28,11.87ZM25,13.35a.54.54,0,0,0,.07-.1l-.2-.08s0,.11-.07.11-.15-.08-.2-.08,0,.1-.07.11-.16-.09-.21-.08,0,.09-.07.1l.4.16s-.1.07-.08.11l.21.08s0-.1.06-.11.17.08.21.08,0-.1.07-.11,0-.1.06-.11S25.06,13.35,25,13.35Zm-1.12-.57.2.08s.06-.1.07-.11-.14-.08-.2-.08Zm7.47-1.87s.12,0,.15,0,0,.16.06.19.13,0,.16,0a.54.54,0,0,0,.16,0s.14,0,.16,0A.74.74,0,0,0,32,10.9a1,1,0,0,0-.06-.2s-.12,0-.16,0h-.31s-.12,0-.16,0S31.33,10.88,31.36,10.91Zm1,.56s0,.16.06.19.15,0,.16,0a.93.93,0,0,0-.05-.19,1.55,1.55,0,0,0-.06-.2s-.12,0-.16,0-.14,0-.16,0a1.11,1.11,0,0,0,.05.19S32.31,11.46,32.32,11.47Zm.32.57s.14,0,.16,0-.06-.18,0-.2h-.16S32.6,12,32.64,12Zm.27-.21s0,.18.06.19.12,0,.16,0,0,.16,0,.19.13,0,.16,0,.14,0,.16,0a1.71,1.71,0,0,0-.06-.2s-.11,0-.16,0,0-.15-.05-.19-.13,0-.16,0,0-.18-.06-.19a.47.47,0,0,0-.15,0s-.15,0-.16,0,.06.15.05.19Zm-8.68-2s.15.08.18.07,0-.12,0-.12.18.07.18.06a.31.31,0,0,0,0-.12s-.15,0-.18-.07,0-.1,0-.12-.14,0-.18-.07v.13s0,.12,0,.12a.86.86,0,0,1-.18-.07l-.18-.07s0,.11,0,.12-.16-.08-.18-.08a.7.7,0,0,0,0,.13l.19.07.18.08a1.63,1.63,0,0,1,.19.07S24.2,9.81,24.23,9.81Zm2.64-1.7s0-.12,0-.15a.71.71,0,0,0,0-.14l-.16,0a1.53,1.53,0,0,0,0,.15s0,.14,0,.15S26.85,8.13,26.87,8.11ZM36,14.39a.72.72,0,0,0,0-.19l-.15,0a1.8,1.8,0,0,1,0,.19Zm-.9-.82a1.78,1.78,0,0,0,0-.2l-.15,0s0,.17,0,.19ZM23.89,9.3a1.18,1.18,0,0,0-.18-.08s0,.11,0,.13,0,.11,0,.12.15,0,.19.07,0-.08,0-.12S23.91,9.31,23.89,9.3Zm1.25,6.38a1.15,1.15,0,0,0,.22.08s.06-.1.08-.1l.22.08.22.08.08-.1-.22-.08-.21-.07a1.64,1.64,0,0,1-.21-.08s.09-.09.08-.1a1.76,1.76,0,0,0-.21-.08L25,15.21l-.17.2.21.08a1.63,1.63,0,0,1,.21.08S25.13,15.66,25.14,15.67ZM31.86,45.4h-.21l.1,0H32Zm-.22,0,.09,0h.1l-.09,0Zm1.57.47-.1,0H33l.1,0ZM24.76,14.46s-.18,0-.2-.09.09-.09.08-.1l-.21-.09a.43.43,0,0,0-.08.1s-.1.08-.08.1a1.53,1.53,0,0,0,.21.08l.21.08S24.72,14.47,24.76,14.46Zm1,1.46L26,16a.33.33,0,0,0,.09-.1s-.19-.06-.22-.08S25.77,15.88,25.79,15.92Zm7.41,30s-.07,0-.1,0H33l.1,0,.1,0h.22l-.1,0ZM24.85,15a1.23,1.23,0,0,0,.21.08s.06-.1.08-.1.17.08.21.07,0-.09.08-.1l-.21-.08L25,14.82s-.17-.07-.21-.08-.06.09-.07.1l.2.08S24.83,15,24.85,15Zm5.48,29.39.1.05.11,0-.1,0Zm.46.33.1,0,.11,0-.09,0Zm2.17-.9h-.09l-.11.07.1,0S32.95,43.87,33,43.85Zm-2,.47-.1,0h-.11l.1,0Zm0,.48h0Zm1.58.62h-.1l.1,0h.11Zm1.15.6-.11,0-.1,0h-.11s.07,0,.1,0l.1,0,.11,0,.11,0S33.74,46,33.73,46Zm-3-1.16.09,0,.11,0-.09,0ZM43.09,21.54c-1.29-1.62-3.38-3.79-3.38-3.79l-.07-.09-.11.07s-.1.08-.11.07,0-.16,0-.16a.57.57,0,0,0-.11.07l-.11.06s-.1.07-.12.06a1.42,1.42,0,0,1,0-.16.72.72,0,0,0,0-.16s-.11.08-.12.07,0-.15,0-.16-.11.08-.11.06a.76.76,0,0,1,0-.16,1.54,1.54,0,0,0,0-.16s-.09,0-.11.06l-.12.06s-.1.06-.11.06a1.21,1.21,0,0,1,0-.16.8.8,0,0,0,0-.17s-.1.07-.12.06a1.28,1.28,0,0,1,0-.17.75.75,0,0,0,0-.17s-.1.05-.12.06-.1.06-.12.05,0-.15,0-.17-.1.07-.12.05,0-.16,0-.17-.09,0-.12.06-.09.05-.12.05-.12.06-.13,0,0-.15,0-.17l.12-.05a.76.76,0,0,0,0-.18.92.92,0,0,1-.12.06,1,1,0,0,1,0-.17A1.07,1.07,0,0,0,38,16s-.11.07-.12.05,0-.18,0-.18-.1,0-.13.05l-.13.05a1.6,1.6,0,0,1,0-.18s0-.18,0-.18-.1,0-.13,0-.12,0-.14,0,0,.16,0,.18a.63.63,0,0,1,0,.17s-.11,0-.14,0,0-.12,0-.18,0-.16,0-.18-.12.07-.13,0a.5.5,0,0,1,0-.17s.12,0,.13,0v-.18s-.11,0-.14,0a.46.46,0,0,0-.14,0s-.12,0-.14,0,0,.14,0,.17-.12,0-.14,0,0-.12,0-.17a.81.81,0,0,1,0-.18s.13,0,.14,0l.14,0,0-.36-.14,0s-.1,0-.14,0,0-.17,0-.18a.92.92,0,0,0-.14,0s-.12,0-.14,0,0-.16,0-.18-.12,0-.14,0,0-.18,0-.19a.4.4,0,0,0-.14,0l-.46.06s0-.14,0-.18,0-.14,0-.18.13,0,.15,0l.14,0a1.56,1.56,0,0,1,0-.19,1.18,1.18,0,0,0,0-.19l-.15,0-.14,0a.65.65,0,0,1-.15,0s0-.17,0-.19-.12,0-.15,0-.12,0-.15,0,0-.15,0-.19-.14,0-.16,0,.05.15,0,.19-.13,0-.16,0,0-.12,0-.19,0-.17,0-.18-.13,0-.15,0,0-.14,0-.18-.13,0-.16,0,0-.15,0-.18h.15a.89.89,0,0,0,0-.19s-.14,0-.16,0,0-.17,0-.19-.11,0-.16,0,0-.16,0-.2a.75.75,0,0,0-.16,0s-.14,0-.15,0,0,.19,0,.19.14,0,.16,0a.87.87,0,0,1,0,.19h-.16s-.12,0-.16,0a1.09,1.09,0,0,1,0-.18s0-.18,0-.18-.14,0-.16,0-.12,0-.16,0,0-.16,0-.18-.13,0-.16,0a1.81,1.81,0,0,1,0,.19h-.17s0-.17,0-.18-.15,0-.17,0,0,.17,0,.18-.15,0-.17,0h-.17s0-.14,0-.18.16,0,.18,0-.06-.15,0-.19.15,0,.17,0a.77.77,0,0,0,0-.18.84.84,0,0,0-.05-.19s-.14,0-.16,0,0-.16,0-.19-.13,0-.16,0a.47.47,0,0,0-.16,0s-.14,0-.17,0a1.29,1.29,0,0,1,0-.19,1.07,1.07,0,0,0,0-.19.71.71,0,0,0-.16,0,.35.35,0,0,1-.16,0s0-.16,0-.18-.12,0-.16,0l.09.36s0,.15,0,.18.13,0,.17,0,0,.15,0,.18.14,0,.18,0a.77.77,0,0,0,.17,0,1,1,0,0,1,.17,0s.14,0,.16,0,0,.15,0,.19H32a.82.82,0,0,0-.17,0s.05.16,0,.18-.14,0-.17,0a.38.38,0,0,1-.17,0,.82.82,0,0,0-.17,0s0,.17,0,.18-.14,0-.17,0L31.11,12a.62.62,0,0,0,0-.17s-.15,0-.17,0,0-.15,0-.18-.15,0-.17,0,0-.14,0-.18a.83.83,0,0,0,0-.17s-.13,0-.17,0,0-.14,0-.17l-.17,0a.59.59,0,0,0,0,.18l0,.18s.13,0,.17,0a.55.55,0,0,1,0,.18s-.16,0-.17,0,.05.15,0,.17-.15-.05-.17,0,0,.13,0,.17-.14,0-.17,0a.65.65,0,0,1,0-.17s0-.15,0-.17.14,0,.17,0,.15.05.17,0a.6.6,0,0,0,0-.17s-.15,0-.17,0l0-.17a1.51,1.51,0,0,0,0-.17s0-.15,0-.17-.13,0-.16,0,0,.16,0,.17a1,1,0,0,1,0,.17s-.14,0-.17,0a.6.6,0,0,1-.17,0s-.15,0-.17,0,0-.12,0-.16.15,0,.17,0,0-.14,0-.17.14,0,.17,0-.05-.15,0-.17.14,0,.17,0-.05-.14,0-.17,0-.14,0-.17.13,0,.15,0a.68.68,0,0,1,.16,0s0,.17,0,.17a.45.45,0,0,0,.16,0h.48s.07.17,0,.18-.13,0-.16,0-.15,0-.16,0,.05.15,0,.18l.08.36h.16s.16,0,.17,0-.06-.15,0-.18.13,0,.16,0a.66.66,0,0,0,0-.19L31,10.72s.12,0,.16,0,.11,0,.16,0,0-.17-.05-.19a1.09,1.09,0,0,0-.06-.19s-.13,0-.15,0h-.16a.32.32,0,0,1-.15,0s0-.16-.06-.18-.12,0-.15,0,0-.15,0-.19-.14,0-.15,0h-.15S30,10,30,10s.06.16,0,.18a.63.63,0,0,1-.15,0h-.16a.88.88,0,0,0-.16,0,1.12,1.12,0,0,0,0,.17.53.53,0,0,1,0,.17s-.15,0-.16,0,0,.14,0,.17l-.32,0s-.05-.14,0-.16.14,0,.16,0,0-.13,0-.16.14,0,.16,0,0-.13,0-.17l-.31,0H29a.74.74,0,0,1-.16,0,.62.62,0,0,1-.16,0s0-.15,0-.16a.46.46,0,0,0-.16,0,.48.48,0,0,0-.16,0s0,.14,0,.16-.14,0-.16,0,0,.13,0,.15-.14,0-.17,0l-.16,0s0-.11,0-.14-.14,0-.16,0,0,.13,0,.14l-.16,0a.61.61,0,0,1,0-.14s.16,0,.16,0,0-.11,0-.15,0-.14,0-.15l-.16,0-.16,0s-.13,0-.16,0,0,.13,0,.14a.52.52,0,0,1-.16,0s0-.12,0-.14-.15,0-.16,0a.36.36,0,0,1,0-.15s.15,0,.17,0,0-.12,0-.14l.16,0,.16,0a.8.8,0,0,1,.17,0s0,.13,0,.15l.16,0s0-.14,0-.14a.47.47,0,0,1,.16,0,.76.76,0,0,1,0,.15l0,.15.17,0h.15a1,1,0,0,0,.16,0s.13,0,.15,0,0-.13,0-.16.13,0,.16,0,0,.15,0,.16h.16s0-.15,0-.16.13,0,.15,0,.1,0,.15,0a.41.41,0,0,1,.15,0s0,.16,0,.16.12,0,.15,0l-.08-.33h-.15a.58.58,0,0,1-.15,0s0-.14,0-.17-.13,0-.15,0,.06.14,0,.17-.13,0-.15,0a.7.7,0,0,0,0-.16.73.73,0,0,0-.14,0h-.15s-.13,0-.15,0,0,.14,0,.16l-.16,0s0-.13,0-.15-.12,0-.16,0,0-.12,0-.16-.12,0-.15,0,0-.13,0-.15-.12,0-.15,0,0-.12,0-.15,0-.11,0-.16l0-.14s0-.13,0-.15l-.15,0a1.24,1.24,0,0,0,0,.15.59.59,0,0,1,0,.16s-.14,0-.16,0,.06.13,0,.15-.15,0-.16,0a1.21,1.21,0,0,0,0,.15.61.61,0,0,0,0,.14l-.16,0a1.52,1.52,0,0,0-.16,0l0,.15s0,.13,0,.14l-.16,0s0-.14,0-.15l-.17,0s0,.13,0,.15a.56.56,0,0,1,0,.14l-.17,0-.17,0a.57.57,0,0,1-.17,0s0-.12,0-.13-.13,0-.17,0-.14,0-.17,0,0-.1,0-.14-.14,0-.17,0,0-.1,0-.14a.42.42,0,0,1,0-.14s0-.13,0-.14.14.05.17,0l-.07-.28-.17,0A.71.71,0,0,0,25.13,8s.06.12,0,.14,0,.12,0,.14,0,.12,0,.14-.16-.06-.17-.05a.4.4,0,0,0,0,.13,1.59,1.59,0,0,0,.18.05s0,.1,0,.14l-.18-.06a.84.84,0,0,1-.18-.05s0-.1,0-.13,0-.11,0-.14-.15,0-.18-.06a.73.73,0,0,1,0,.14l-.18-.06-.18-.06a1.12,1.12,0,0,1-.18-.07s0-.12,0-.14L24,8,23.77,8l-.18-.07a1.27,1.27,0,0,1-.19-.08s0-.1,0-.14a.85.85,0,0,0,.19.08s0-.12,0-.14l0-.14-.19-.07a1.15,1.15,0,0,0-.19-.07s.05.13,0,.14L23,7.41l-.19-.08-.19-.08-.19-.08a1.18,1.18,0,0,1-.19-.08s0-.09,0-.14a.93.93,0,0,1-.2-.08l-.19-.08.07.27,0,.13s.15.05.19.09,0,.12,0,.13a.93.93,0,0,0,.19.08l.19.09.19.08.19.08s0-.13,0-.13l.19.07.19.08s.06.12,0,.14-.17-.09-.18-.08,0,.1,0,.13a.76.76,0,0,0,0,.13l.19.08.19.08a.77.77,0,0,1,.19.08s0,.1,0,.13l.18.07s0-.14,0-.14l.18.08a.89.89,0,0,1,0,.13s0,.12,0,.13a1.38,1.38,0,0,0,.19.07l.18.07a1.36,1.36,0,0,0,.18.06s0-.13,0-.13-.15,0-.18-.06a.49.49,0,0,1,0-.13l.18.06.18.06.18.06s0,.12,0,.14.15,0,.18.05,0,.11,0,.14.15,0,.18,0,0,.1,0,.14.14,0,.18,0a.65.65,0,0,1,0-.14l.18.05s0,.12,0,.13.15,0,.17.05,0,.11,0,.13,0,.1,0,.13-.15-.06-.18,0,0,.12,0,.13a1.08,1.08,0,0,1-.18,0s0-.12,0-.13-.15,0-.18-.05a1.06,1.06,0,0,1-.18-.05s0-.1,0-.13S25,9.32,25,9.3s0-.1,0-.13,0-.12,0-.13A1.64,1.64,0,0,0,24.79,9a.71.71,0,0,1,0,.13,1.24,1.24,0,0,1-.18-.06A1,1,0,0,0,24.44,9s0,.12,0,.13l-.18-.07L24.08,9a.84.84,0,0,1-.18-.07s0-.12,0-.13a.78.78,0,0,0-.18-.07l-.18-.08s0,.13,0,.13.13.06.19.08,0,.09,0,.12.15,0,.19.07,0,.09,0,.12.14,0,.18.07.15.05.19.07a1.21,1.21,0,0,1,.19.07s0,.11,0,.12l.18.06s0-.12,0-.13l.18.06s0,.12,0,.13a1.29,1.29,0,0,0,.18.06l.18.06a.38.38,0,0,1,0,.13s0,.12,0,.13l.18.05.18.06a.69.69,0,0,0,.18.05s0-.11,0-.13V9.91L26,10v.27s0,.12,0,.13a.62.62,0,0,1-.17,0s-.16-.06-.18-.05,0,.12,0,.13a.57.57,0,0,1-.18-.06s0-.11,0-.12-.14,0-.17-.05-.15,0-.18-.06,0-.13,0-.13L25,9.95a.66.66,0,0,0-.18-.07s0,.12,0,.13-.16-.07-.18-.06,0,.1,0,.12l-.36-.14s0,.1,0,.13.18,0,.18.07,0,.09,0,.12a1.16,1.16,0,0,0,0,.12,1.08,1.08,0,0,0,.19.07,1.13,1.13,0,0,0,.19.07s0-.12,0-.12.15.08.18.06,0-.12,0-.12a.92.92,0,0,1,.18.06.84.84,0,0,1,.18.06.4.4,0,0,1,0,.13s0,.11,0,.12-.14,0-.18-.06,0-.1,0-.12a1.06,1.06,0,0,0-.18-.07s0,.12,0,.13-.15-.08-.18-.07,0,.1,0,.12l.19.06.18.06s.16,0,.18.06,0-.09,0-.12l.18.06a.82.82,0,0,0,.18.06s0-.11,0-.12,0-.12,0-.12a1.22,1.22,0,0,1,.18,0s0,.12,0,.13.15,0,.18.06,0,.09,0,.13l.18.05a.84.84,0,0,1,.18.05s0,.11,0,.13,0,.12,0,.13a1.35,1.35,0,0,0,.18.05l.18,0s.17,0,.18.05,0,.1,0,.13l-.18-.06a.32.32,0,0,0,0,.13s.17,0,.18.05,0,.11,0,.13,0,.11,0,.13-.16-.07-.19-.06a.42.42,0,0,0,0,.12s.18,0,.19.06-.05.09,0,.12-.17,0-.19-.06-.16,0-.19-.06.06-.1,0-.12-.17,0-.18-.06,0-.1,0-.12l.19.06s0-.11,0-.12,0-.08,0-.12a.33.33,0,0,0,0-.13s-.17,0-.18,0,.06-.11,0-.12-.14,0-.18-.05,0-.11,0-.13A.92.92,0,0,0,26,11L25.77,11s-.14-.07-.18-.06,0,.12,0,.12L25.38,11s0-.11,0-.12-.16,0-.18-.06,0,.09,0,.12,0,.12,0,.12S25,11,25,11s0,.1,0,.12.16,0,.18.06,0,.09,0,.12l.18.06.19.07a1.07,1.07,0,0,0,.19.06s0-.1,0-.12,0-.11,0-.12.14.06.19.06l0,.12s0,.09,0,.12,0,.11,0,.12l-.19-.06-.18-.06-.08.23.19.07a1.14,1.14,0,0,1,.18.06s-.06.1,0,.11.16.06.19.07a.64.64,0,0,1,0-.12l.19.06s-.05.09,0,.12-.05.08,0,.11-.15-.07-.19-.07,0,.12,0,.13-.15-.08-.18-.07,0,.12-.05.11a1.1,1.1,0,0,1-.19-.06l-.19-.07a1.09,1.09,0,0,1,0-.11s.06-.08,0-.12-.17,0-.18-.07.07-.09,0-.11a.86.86,0,0,0-.19-.07l-.19-.07-.19-.07-.18-.08a.76.76,0,0,1-.19-.07s.06-.09,0-.11-.17,0-.19-.08.07-.07,0-.11-.17,0-.19-.08,0,.1,0,.11a.41.41,0,0,1-.05.11l-.18-.08s0,.11-.05.11-.17-.09-.19-.08a.21.21,0,0,0-.05.11s-.07.09-.06.1.19.08.19.09,0-.11.06-.11l.19.08s0,.1-.06.11-.15-.08-.19-.08-.06.09-.06.1.18.07.19.08-.05.09-.06.1l.2.08.18.08a1.09,1.09,0,0,0,.2.08s0-.1.06-.11,0-.1.06-.11.14.07.18.07-.06.1-.05.11l.19.07a1,1,0,0,0,.19.07s0-.1.05-.11,0-.11.05-.11S25,12,25,12l-.05.11s0,.11,0,.11-.15-.07-.2-.07l-.12.21.2.08.19.07s.15.07.2.07,0-.1.05-.11l.19.07s-.07.1-.06.11.18,0,.2.07-.05.09-.06.12l-.2-.08s0,.11-.06.11-.15-.08-.2-.07,0,.1-.06.11l-.2-.08s.07-.1.07-.11a1,1,0,0,0-.2-.08l-.19-.08s0,.11-.06.11-.16-.09-.19-.08,0,.09-.07.1a1.42,1.42,0,0,1,.2.08l.2.08.2.08.19.07.2.07s0-.1.07-.11.16.08.2.07,0-.12.06-.11a.94.94,0,0,1,.2.08l.39.13-.11.23s-.17,0-.21-.08.08-.08.06-.11a1.73,1.73,0,0,0-.2-.07s0,.11-.06.11-.17-.09-.2-.08,0,.09-.06.12,0,.11-.07.11.16.08.21.07,0-.1.06-.11.16.07.2.08l-.06.11s-.07.08-.07.11.19.06.2.07-.09.08-.07.11l.21.07a1.76,1.76,0,0,1,.21.08s-.09.08-.06.11-.09.1-.07.11a.9.9,0,0,0,.21.07,1.43,1.43,0,0,1,.21.08s-.06.09-.07.1-.08.11-.07.11a1.41,1.41,0,0,0,.21.07l.42.15L27,15l-.22-.07a1.19,1.19,0,0,0-.21-.07s0,.1-.07.11l-.21-.08s.08-.09.07-.11-.19-.05-.21-.08.1-.07.08-.1-.19,0-.21-.08.09-.09.07-.11a1.8,1.8,0,0,0-.21-.08,1.16,1.16,0,0,1-.21-.07s.06-.09.08-.1.07-.11.07-.11L25.62,14l-.2-.08s0,.11-.07.11a1.39,1.39,0,0,1-.21-.08,1.68,1.68,0,0,0-.2-.08s0,.11-.07.11-.15-.08-.2-.08l-.16.21.21.08.2.07s0-.1.08-.1,0-.1.07-.1a1.59,1.59,0,0,1,.2.08l.21.08-.07.11s-.08.08-.08.11.19.06.21.07-.1.08-.08.12.18,0,.21.07-.09.07-.08.11.19,0,.21.08-.07.08-.08.1-.09.08-.08.1.19,0,.2.08-.1.09-.08.1a1.81,1.81,0,0,0,.21.08,1.51,1.51,0,0,1,.22.08s-.1.07-.09.1.22.06.22.08-.06.08-.08.1l-.09.1.44.16.08-.1a.47.47,0,0,1,.07-.11s0-.1.09-.1l.21.08s-.09.1-.07.11.18,0,.22.07L27,16.1,26.82,16a.9.9,0,0,0-.21-.08s-.07.09-.08.1-.06.1-.08.1-.19-.09-.21-.08,0,.11-.09.11-.2-.08-.22-.08-.07.08-.08.1l-.09.1-.43-.16s-.06.07-.08.1-.1.08-.09.1a2.14,2.14,0,0,0,.21.08s.08-.1.09-.1l.21.08a1.41,1.41,0,0,0,.22.08s0-.09.09-.1.18.08.22.08.06-.09.08-.1.06-.11.09-.11.16.07.22.08l-.09.1-.09.1s0,.09-.08.1a2,2,0,0,1-.22-.08l-.21-.08s-.08.09-.09.1l.22.08s.21.06.22.08-.08.08-.09.1-.06.07-.08.1L26,17l.22.07s.07-.1.08-.1l.22.08s-.1.09-.08.1l.22.07s.06-.1.09-.1.17.07.22.08.16.08.23.08,0-.1.09-.1.16.07.22.08l-.09.1s-.1.09-.09.1.19,0,.23.07-.11.07-.08.11l.23.07a1.31,1.31,0,0,1-.18.21s.1-.09.09-.1-.21,0-.23-.08.11-.07.09-.1-.19,0-.23-.08.11-.07.09-.1a2.17,2.17,0,0,0-.22-.07s-.08.1-.09.1a1.64,1.64,0,0,1-.23-.08,1.69,1.69,0,0,0-.22-.08l-.23-.08s-.19-.08-.22-.08-.07.11-.09.1.15.06.22.07.21,0,.22.08-.11.08-.09.1a1.81,1.81,0,0,0,.22.08l.23.07s-.11.09-.09.1a1.45,1.45,0,0,0,.22.07s.07-.1.09-.1l.23.08s-.08.08-.09.1l-.09.1s-.09.08-.09.11l.23.07a1.48,1.48,0,0,1,.23.08s-.08.08-.09.1-.07.06-.09.1l-.09.1.13,0c0,.05,14.05,13.08,14.05,19.81,0,2.43-4.35,4.15-4.35,4.15l-.29-.06H36.6l-.23.15c-.08,0-.14.11-.23.14s-.13,0-.19,0-.17.12-.24.14-.11,0-.18,0-.17.11-.23.13-.14,0-.17,0l-.21.12-.19.12-.18.11-.32.21s-.12,0-.12,0,.14-.08.14-.1-.12,0-.12,0,.13-.08.15-.1-.11,0-.12,0H34l-.13.1-.13.1a.35.35,0,0,1-.1,0l-.1,0s-.12.08-.12.09.1,0,.09,0-.12.08-.12.08.08,0,.1,0h.09s-.11.07-.12.08l-.09,0s-.09,0-.09,0,.11-.07.11-.08h-.09l-.11.08-.12.08s.09,0,.09,0l-.11.07-.11.07s-.08,0-.09,0l-.09,0,.11-.07s-.1,0-.09,0l.11-.07s-.09,0-.09,0l-.11.06-.11.07s.09,0,.09,0-.1,0-.11.06-.11,0-.11.06.08,0,.09,0l.11-.05.09,0h.09s-.1,0-.11.06l-.09,0-.09,0s-.08,0-.11,0l-.09,0,.11,0s-.09,0-.09,0-.1,0-.09,0l.11-.05-.09,0h-.09s-.06,0-.09,0l-.11,0,.09,0,.09,0s-.1,0-.1,0,.09,0,.09,0l-.11,0-.09,0s-.07,0-.09,0l-.11,0-.11,0-.09,0-.09,0-.11,0-.22,0h-.11l.1,0h-.11l.1,0,.1,0h.11l.11,0,.09,0-.11,0,.09,0-.11,0h-.11l-.09,0h-.1s-.06,0-.1,0h.1l-.09,0h-.11s-.06,0-.1,0h-.11l.09,0h-.11l-.1,0h.11l-.1,0h.11l-.1,0-.11,0-.11,0,.1,0-.12,0,.1,0-.11,0-.11,0-.12,0h0l.07,0,.08,0,.1.05-.11,0H30.2l0,0,.1.05.1.06.11,0,.09,0,.1,0,.11,0H31l.09,0,.1,0h.11l.08,0h-.09l-.09,0h-.22l-.1,0-.1,0-.1,0-.11,0-.11,0,.1.05-.11,0-.12,0,.1.06.11.06.11,0,.11,0,.1.05h.11l.1,0,.09,0H31l.09,0,.1,0h.32l.09,0h-.32l.09,0h-.1l-.09,0-.1,0H31l.09,0-.1,0L31,45l-.11,0L31,45l.09.05h.11l-.09,0h.32l.1,0a.69.69,0,0,0-.11,0l.1,0h.1l.09,0h-.11l-.09,0h-.11l.1,0,.09,0h-.21l.09,0,.09,0h.11l-.09,0h.1l.1,0H32l.09,0h.1l.09,0h.1l-.09,0h.1l.11,0-.09,0s.1,0,.11,0l.09,0s-.1,0-.1,0l.09,0-.1,0,.1,0-.11,0-.11,0,.1,0h.1l.1,0h-.1l.09,0h.11l.11,0,.09,0,.1,0H33l.1,0,.1,0,.1,0-.11,0-.1,0-.1,0s-.07,0-.11,0l-.1,0-.11,0-.09,0h-.11l.1,0h-.11l-.1,0-.1,0h-.1l.1,0,.09,0,.09,0s.08,0,.11,0l.09,0h-.1l.1,0h.1l.1,0,.09,0H33l.1,0H33l.1,0h.22l-.1,0h.11l-.1,0-.1,0-.1,0-.11,0-.1,0H33s.07,0,.1,0l.11,0,.1,0,.11,0,.1,0,.1,0s.07,0,.11,0l.1,0-.11,0-.1,0-.11,0,.1,0-.11,0h-.11l.1,0,.1,0-.11,0,.11,0,.21.06.22,0,.11,0,.12,0s-.1,0-.11,0l-.11,0-.1,0s.1,0,.11,0l.11,0,.12,0-.11,0,.11,0,.12,0s-.11,0-.11,0l-.12,0s-.07,0-.1,0l.11,0,.11,0s.08,0,.11,0l.11,0-.11,0s.11,0,.11,0-.12,0-.12,0l.11,0,.11,0-.12,0-.11,0-.12,0,.22.06.12,0,.12,0,.12,0-.13,0,.12,0-.12,0-.12,0-.12,0s-.07,0-.11,0-.08,0-.12,0l-.11,0-.11,0,.1,0L34,46l-.1,0s-.08,0-.12,0-.07,0-.1,0h-.11l.11,0,.21.07s.07,0,.1,0l.11,0L34,46l.12,0,.11,0,.12,0,.12,0s.1,0,.12,0-.12,0-.12,0l.12,0s-.11,0-.12,0-.12,0-.12,0,.1,0,.11,0l.23.07.13,0,.12,0-.12,0,.12,0,.13,0,.12,0,.12,0s-.12,0-.12,0l.12,0,.13,0,.12,0s0,.09.07.09.1-.09.14-.11.05,0,.07,0,.09,0,.12,0,.11-.1.11-.09,0,.11,0,.11.18-.08.22-.08.1.19.12.19h.13a2.4,2.4,0,0,1,.5,0c5.31.59,8.58-.62,10.59-2.59a7.65,7.65,0,0,0,1.69-2.63C52.72,32.88,43.09,21.54,43.09,21.54ZM27.24,9a.4.4,0,0,1,0,.15s-.13,0-.15,0a.83.83,0,0,0,0-.15S27.23,9,27.24,9Zm4.41,35.76-.09,0h-.11l-.09,0h.11s.06,0,.09,0,.07,0,.11,0l.09,0Zm.22-.41.09,0-.11,0-.09,0s.1,0,.11,0-.08,0-.09,0l-.09,0-.09,0,.11,0,.09,0,.09,0s.09,0,.09,0Z"></path>
    <path class="cls-6" d="M44,29.44c6.49,5,6.13,9.54,5.32,11.68,1.93-4.7-.36-10.4-2.69-14.43l-.51.4A10.53,10.53,0,0,0,44,29.44Z"></path>
    <path class="cls-7" d="M41.39,38.48a18.25,18.25,0,0,1,2.61-9,37.25,37.25,0,0,0-6-3.72,59.49,59.49,0,0,0-6.42-2.83c4.14,4.41,9.86,11.28,9.86,15.58a4.77,4.77,0,0,1-1.55,3.24l-.1,0s-.12.21-.13.22-.09.17-.15.22-.08,0-.12,0-.11.18-.15.21-.07,0-.13,0-.12.18-.16.21-.1,0-.13,0-.13.16-.18.21l-.19.2-.21.21-.43.39s-.15,0-.13,0,.2-.16.22-.19-.15,0-.13,0,.19-.16.21-.19-.12,0-.13,0l-.14,0-.21.2-.21.19a.71.71,0,0,1-.14,0l-.13,0s-.2.16-.21.18.14,0,.13,0l-.21.18s.1,0,.13,0,.14,0,.13,0-.18.15-.21.18l-.12,0-.13,0s.19-.16.2-.18l-.12,0-.2.18-.19.17s.12,0,.12,0l-.18.17-.19.16s-.11,0-.12,0-.11,0-.12,0,.17-.13.19-.16-.14,0-.12,0,.14-.12.18-.16-.13,0-.12,0l-.18.16-.18.16s.13,0,.12,0-.16.13-.18.16-.16.12-.17.14.1,0,.12,0-.13.13-.17.14a.23.23,0,0,1-.12,0s.17-.13.17-.14-.12,0-.12,0-.12,0-.12,0l.17-.14-.12,0a.3.3,0,0,0-.12,0s-.08,0-.12,0l-.17.15.12,0,.12,0s-.15.11-.17.14.13,0,.12,0l-.17.13-.12,0a.3.3,0,0,0-.12,0l-.15.12s.08,0,.1,0l.11,0-.11,0s.11,0,.11,0-.12,0-.12,0l.11,0,.11,0-.12,0-.11,0-.12,0,.22.06.12,0,.12,0,.12,0-.13,0,.12,0-.12,0-.12,0-.12,0s-.07,0-.11,0-.08,0-.12,0l-.11,0-.11,0,.1,0L34,46l-.1,0s-.08,0-.12,0h0l0,0,.17.06s.07,0,.1,0l.11,0L34,46l.12,0,.11,0,.12,0,.12,0s.1,0,.12,0-.12,0-.12,0l.12,0s-.11,0-.12,0-.12,0-.12,0,.1,0,.11,0l.23.07.13,0,.12,0-.12,0,.12,0,.13,0,.12,0,.12,0s-.12,0-.12,0l.12,0,.13,0,.12,0s0,.09.07.09.1-.09.14-.11.05,0,.07,0,.09,0,.12,0,.11-.1.11-.09,0,.11,0,.11.18-.08.22-.08.1.19.12.19h.13a2.4,2.4,0,0,1,.5,0c5.31.59,8.58-.62,10.59-2.59h0l-.69-.22S42.52,42.14,41.39,38.48ZM35.72,45s-.16.13-.17.15h-.23l.17-.14h.11S35.73,45,35.72,45Z"></path>
    <path class="cls-8" d="M44,29.44a18.25,18.25,0,0,0-2.61,9c1.14,3.66,5.56,5.05,5.56,5.05l.69.22a7.65,7.65,0,0,0,1.69-2.63C50.13,39,50.49,34.45,44,29.44Z"></path>
  </g>
</svg>
