<?xml version="1.0" encoding="UTF-8"?>
<svg xmlns="http://www.w3.org/2000/svg" viewBox="0 0 336.13 99.18">
  <defs>
    <style>.cls-1{fill:#003964;}.cls-2{fill:#ed193a;}.cls-3{fill:#58595b;}</style>
  </defs>
  <title>행안부</title>
  <g id="Layer_2" data-name="Layer 2">
    <g id="Layer_1-2" data-name="Layer 1">
      <path class="cls-1" d="M76.57,47.33C68,41.48,56.93,43.87,51.14,52.67a17.9,17.9,0,0,1-32.36-4.92h0l0-.19c0-.08,0-.15-.06-.23a22.94,22.94,0,0,1-.91-7.11c0-16,16.45-33.9,40.16-33.9,24.27,0,38.16,18.48,41.74,28.75l-.18-.54A51.12,51.12,0,0,0,0,51.11C0,76.34,18.2,97.94,43.44,97.94c20.13,0,33.66-11.29,39.87-26.84C86.72,62.59,84.31,52.58,76.57,47.33Z"></path>
      <path class="cls-2" d="M100,36.07c-3-10-17-29.74-42.06-29.74-23.71,0-40.16,17.86-40.16,33.9a22.94,22.94,0,0,0,.91,7.11,15,15,0,0,1-.47-3.65c0-16.7,16.73-28.28,33.92-28.28A42.14,42.14,0,0,1,94.26,57.55,46.45,46.45,0,0,1,68.5,99.17h0a51.13,51.13,0,0,0,33.71-48.07A50.49,50.49,0,0,0,100,36.07Z"></path>
      <path class="cls-3" d="M134.59,33.17v-3.4H140v3.4h7.53v4.22h-21.3V33.17Zm12,13.86a7.76,7.76,0,0,1-.73,3.35,8.36,8.36,0,0,1-2,2.71A9.83,9.83,0,0,1,140.92,55a9.21,9.21,0,0,1-3.58.69,9.38,9.38,0,0,1-3.6-.69,9.73,9.73,0,0,1-3-1.88,9,9,0,0,1-2-2.71,7.79,7.79,0,0,1,0-6.7,9.64,9.64,0,0,1,2-2.75,10.24,10.24,0,0,1,3-1.84,9.38,9.38,0,0,1,3.6-.69,9.22,9.22,0,0,1,3.58.69,10.35,10.35,0,0,1,2.94,1.84,8.89,8.89,0,0,1,2,2.75A7.76,7.76,0,0,1,146.61,47Zm-4.73,0a4.33,4.33,0,0,0-1.33-3.17,4.54,4.54,0,0,0-6.43,0,4.44,4.44,0,0,0,0,6.33,4.54,4.54,0,0,0,6.43,0A4.32,4.32,0,0,0,141.89,47ZM159.83,63.6a8,8,0,0,1-.8,3.53,9.75,9.75,0,0,1-5.26,5,9.66,9.66,0,0,1-3.81.76,9.82,9.82,0,0,1-3.83-.76,10.62,10.62,0,0,1-3.19-2,10.79,10.79,0,0,1-2.09-2.94,8,8,0,0,1-.8-3.53,8.28,8.28,0,0,1,.8-3.58,10.58,10.58,0,0,1,2.09-3,11.14,11.14,0,0,1,3.19-2,9.84,9.84,0,0,1,3.83-.76,9.67,9.67,0,0,1,3.81.76,11.25,11.25,0,0,1,3.17,2A10.6,10.6,0,0,1,159,60,8.28,8.28,0,0,1,159.83,63.6Zm-5,0a4.71,4.71,0,0,0-1.47-3.44,4.76,4.76,0,0,0-3.49-1.47,4.61,4.61,0,0,0-3.44,1.47,4.79,4.79,0,0,0-1.42,3.44,4.63,4.63,0,0,0,1.42,3.4,4.69,4.69,0,0,0,3.44,1.42,4.84,4.84,0,0,0,3.49-1.42A4.56,4.56,0,0,0,154.87,63.55ZM154.78,53h-4.73V30.64h4.73v8.9H159v-9h4.87v23H159V44.14h-4.18Z"></path>
      <path class="cls-3" d="M169.75,36.15V31.79h23.5v4.36h-10l10.42,12.71-3.54,2.94-8.45-10.51-8.31,11.2-3.67-2.94,10.42-13.4Zm32.54,26.67a9,9,0,0,1-.85,3.88,10.77,10.77,0,0,1-2.27,3.19,10.61,10.61,0,0,1-3.37,2.18,11.09,11.09,0,0,1-8.28,0,10.52,10.52,0,0,1-3.4-2.18,10.74,10.74,0,0,1-2.27-3.19,9.3,9.3,0,0,1,0-7.76,10.74,10.74,0,0,1,2.27-3.19,10.51,10.51,0,0,1,3.4-2.18,11.08,11.08,0,0,1,8.28,0,10.6,10.6,0,0,1,3.37,2.18,10.76,10.76,0,0,1,2.27,3.19A9,9,0,0,1,202.29,62.82Zm-5,0a5.35,5.35,0,0,0-1.68-3.95,5.52,5.52,0,0,0-4-1.65,5.6,5.6,0,0,0,0,11.2,5.55,5.55,0,0,0,4-1.63A5.33,5.33,0,0,0,197.29,62.77Zm3.4-10.46V43.45h-7.62V39h7.62V30.6h5.1V52.31Z"></path>
      <path class="cls-3" d="M235,42.07a10.31,10.31,0,0,1-.92,4.31A11.69,11.69,0,0,1,231.57,50a12.55,12.55,0,0,1-3.7,2.41,11.24,11.24,0,0,1-4.47.9,11.4,11.4,0,0,1-4.5-.9A11.83,11.83,0,0,1,215.23,50a11.66,11.66,0,0,1-2.53-3.58,10.6,10.6,0,0,1,0-8.63,11.68,11.68,0,0,1,2.53-3.58,11.83,11.83,0,0,1,3.67-2.41,11.4,11.4,0,0,1,4.5-.89,11.24,11.24,0,0,1,4.47.89,12.55,12.55,0,0,1,3.7,2.41,11.71,11.71,0,0,1,2.52,3.58A10.32,10.32,0,0,1,235,42.07ZM219.45,57v9.18H247v4.5H214.36V57ZM230.1,42.12a6.45,6.45,0,0,0-.53-2.59,7.43,7.43,0,0,0-1.45-2.18A7.66,7.66,0,0,0,226,35.92a6.11,6.11,0,0,0-2.55-.55,6.22,6.22,0,0,0-2.59.55,8.39,8.39,0,0,0-2.18,1.42,8.36,8.36,0,0,0-1.42,2.18,6.21,6.21,0,0,0-.55,2.59,6.06,6.06,0,0,0,.55,2.57,7.74,7.74,0,0,0,1.42,2.11,7.41,7.41,0,0,0,2.18,1.45,6.44,6.44,0,0,0,2.59.53,6.33,6.33,0,0,0,2.55-.53,6.83,6.83,0,0,0,2.13-1.45,6.92,6.92,0,0,0,1.45-2.11A6.29,6.29,0,0,0,230.1,42.12Zm15.83,14.69h-5V30.6h5v9h5.87v5h-5.87Z"></path>
      <path class="cls-3" d="M255.48,36.15V31.79H279v4.36H269L279.4,51.48l-3.81,2.57-8.17-12.35-8.08,12.67-3.9-2.57,10.37-15.65Zm2.85,34.56V57h5v9.18h28.5v4.5Zm28.09-13.91V44.73H278.8v-4.5h7.62V30.6h5.1V56.81Z"></path>
      <path class="cls-3" d="M298.49,56.48h37.64V61H319.83V71.54h-5.09V61H298.49Zm8-20h21.53V31.29h5V51H301.52V31.29h5Zm21.53,4.41H306.52v5.65h21.53Z"></path>
    </g>
  </g>
</svg>
