<?xml version="1.0" encoding="UTF-8"?>
<svg xmlns="http://www.w3.org/2000/svg" viewBox="0 0 757.44 80.38">
  <defs>
    <style>.cls-1{fill:#0068b0;}.cls-2{fill:#243b7c;}</style>
  </defs>
  <title>nia</title>
  <g id="Layer_2" data-name="Layer 2">
    <g id="Layer_1-2" data-name="Layer 1">
      <path class="cls-1" d="M240.3,29.35a17.33,17.33,0,0,0-3.41-10.6h7.2V11.27H227.9V.95H216V11.27H199.77v7.48h7.18a17.38,17.38,0,0,0-3.39,10.6c0,10.6,8.14,17.52,18.37,17.52S240.3,40,240.3,29.35Zm-25.37,0c0-6.25,3.12-10.23,7-10.23s6.91,4,6.91,10.23-3.12,10.13-6.91,10.13S214.92,35.51,214.92,29.35Z"></path>
      <path class="cls-2" d="M131.32,2.94,102.44,77.83h16.95l4.32-12h31.62l4.2,12H177L148.46,2.94Zm-3.21,50.65,11.64-32.38,11.32,32.38Z"></path>
      <rect class="cls-2" x="79.06" y="2.94" width="16.66" height="74.89"></rect>
      <polygon class="cls-2" points="48.67 53.59 16.66 2.94 0 2.94 0 77.83 15.72 77.83 15.72 27.36 47.53 77.83 64.29 77.83 64.29 2.94 48.67 2.94 48.67 53.59"></polygon>
      <path class="cls-1" d="M716.73,31.72c9.75,0,17.71-6.06,17.71-15.43S726.48.76,716.73.76s-17.61,6.15-17.61,15.53S707,31.72,716.73,31.72Zm0-23.57c3.5,0,6.25,3.12,6.25,8.14s-2.75,8-6.25,8-6.25-3.12-6.25-8S713.22,8.14,716.73,8.14Z"></path>
      <path class="cls-1" d="M422.27,44.5H468c1.42,0,1.89-.57,1.89-1.89V4.92H458.53v12.5h-26.8V4.92H420.38V42.61C420.38,43.93,420.85,44.5,422.27,44.5ZM458.53,25V36.07a.9.9,0,0,1-.95.95h-24.9a.9.9,0,0,1-.95-.95V25Z"></path>
      <polygon class="cls-1" points="730.93 46.87 730.93 54.25 744.47 54.25 744.47 59.93 755.83 59.93 755.83 3.13 744.47 3.13 744.47 46.87 730.93 46.87"></polygon>
      <rect class="cls-1" x="606.52" y="3.13" width="11.36" height="53.68"></rect>
      <path class="cls-1" d="M638.52,21.68c0,8.33,8.24,13.73,18.84,13.73,10.32,0,18.84-5.4,18.84-13.73A11.29,11.29,0,0,0,674,15h8.81l.1-7h-19.6V0H651.4V8H632v7h8.66A11.44,11.44,0,0,0,638.52,21.68Zm18.84,6.44c-4.17,0-7.57-2.46-7.57-6.44s3.41-6.44,7.57-6.44,7.48,2.56,7.48,6.44S661.43,28.12,657.36,28.12Z"></path>
      <path class="cls-1" d="M657.36,49.23c-11.74,0-21,6.15-21,15.62s9.28,15.53,21,15.53,21-6.15,21-15.53S669,49.23,657.36,49.23Zm0,23.76c-5.4,0-9.85-3.22-9.85-8.14s4.45-8.24,9.85-8.24,9.75,3.32,9.75,8.24S662.66,73,657.36,73Z"></path>
      <rect class="cls-1" x="625.08" y="38.72" width="65.04" height="7.67"></rect>
      <path class="cls-1" d="M582.85,69.4V51.79H571.39V75.93a1.66,1.66,0,0,0,1.9,1.89h46.2V70.35H583.8A.89.89,0,0,1,582.85,69.4Z"></path>
      <path class="cls-1" d="M227.61,69.4V52.74H216.16v23.2A1.66,1.66,0,0,0,218,77.83h46.2V70.35H228.56A.89.89,0,0,1,227.61,69.4Z"></path>
      <polygon class="cls-1" points="710.19 53.4 721.55 53.4 721.55 42.61 739.92 42.61 739.92 34.94 693.62 34.94 693.62 42.61 710.19 42.61 710.19 53.4"></polygon>
      <path class="cls-1" d="M543,3.13H531.63V56H510.89V45.14A16.44,16.44,0,0,0,523.2,28.88,16.83,16.83,0,0,0,520,18.75h6.42V11.27H511.18V.95H499.25V11.27H484v7.48h6.39a16.89,16.89,0,0,0-3.17,10.13,16.38,16.38,0,0,0,12.31,16.27V56H483.34v7.67h48.29V78.77H543V32.57h9.56V24.9H543Zm-37.78,16c3.6,0,6.53,3.69,6.53,9.75s-2.94,9.66-6.53,9.66-6.63-3.69-6.63-9.66S501.52,19.13,505.21,19.13Z"></path>
      <path class="cls-1" d="M720.8,70.35a.89.89,0,0,1-.95-.95V57H708.4V75.93a1.66,1.66,0,0,0,1.89,1.89h47.15V70.35Z"></path>
      <path class="cls-1" d="M578.34,35.87c4.38,5.55,11,9.66,19.28,12.23l3.69-6.82c-10.79-3.6-17.8-10.41-17.8-20.64V12.4h13.63V4.92H558.9V12.4h13.26v9.19c0,10.22-6.06,16.76-16.85,20.36L559,48.76C567.68,46.07,574.24,41.77,578.34,35.87Z"></path>
      <path class="cls-1" d="M333.18,6.15c0-1.33-.47-1.89-1.89-1.89H282.15v7.48h38.63a.9.9,0,0,1,.95.95V31.44H275V39.1h26.89V51.51h-19V59h37.68a.9.9,0,0,1,.95.95V78.77H332.9V53.4a1.66,1.66,0,0,0-1.9-1.89H313.11V39.1H340V31.44h-6.82Z"></path>
      <polygon class="cls-1" points="262.36 3.13 251 3.13 251 56.81 262.36 56.81 262.36 30.68 271.92 30.68 271.92 23.01 262.36 23.01 262.36 3.13"></polygon>
      <path class="cls-1" d="M385.25,42.13l3.69-6.82c-10.79-3.6-16.85-10.13-16.85-20.36V12.4h13.16V4.92h-37.3V12.4h12.78v3.5c0,10.22-6.06,16.76-16.85,20.36l3.69,6.82c8.59-2.65,15.08-6.88,19.19-12.66C370.9,35.72,377.14,39.63,385.25,42.13Z"></path>
      <path class="cls-1" d="M383.45,45.26c-10.6,0-19.22,7-19.22,17.61s8.62,17.51,19.22,17.51,19.31-6.91,19.31-17.51S394.06,45.26,383.45,45.26Zm0,27.74c-4.35,0-7.86-4-7.86-10.13s3.5-10.23,7.86-10.23,7.86,4,7.86,10.23S387.81,73,383.45,73Z"></path>
      <polygon class="cls-1" points="395.1 19.32 382.03 19.32 382.03 26.7 395.1 26.7 395.1 45.26 406.46 45.26 406.46 3.13 395.1 3.13 395.1 19.32"></polygon>
      <polygon class="cls-1" points="450.86 47.34 439.41 47.34 439.41 61.73 412.62 61.73 412.62 69.4 477.66 69.4 477.66 61.73 450.86 61.73 450.86 47.34"></polygon>
    </g>
  </g>
</svg>
