<?xml version="1.0" encoding="UTF-8"?>
<svg xmlns="http://www.w3.org/2000/svg" viewBox="0 0 185.76 59.68">
  <defs>
    <style>.cls-1{fill:#dd052b;}.cls-2{fill:#ef7b10;}</style>
  </defs>
  <title>sk-broadband</title>
  <g id="Layer_2" data-name="Layer 2">
    <g id="_Layer_" data-name="&lt;Layer&gt;">
      <path class="cls-1" d="M11.22,43.81c-2.12-1-3.86-1.79-3.86-3.41,0-1.24,1-2.14,3-2.14a10.27,10.27,0,0,1,1.92.2,5.72,5.72,0,0,0,.94.1c1.71,0,2.68-1,3.32-3l.27-.79A17.86,17.86,0,0,0,10,33.47c-5.79,0-8.85,3.72-8.85,7.57a6.53,6.53,0,0,0,1.56,4.47,14.06,14.06,0,0,0,4.62,3.16c2.39,1.17,4.54,2,4.54,3.77,0,1.54-1.59,2.42-3.72,2.42A11.65,11.65,0,0,1,2.39,53L0,57.48a16.53,16.53,0,0,0,8.58,2.2c5.41,0,9.51-3.1,9.51-7.88S14.29,45.29,11.22,43.81Z"></path>
      <path class="cls-1" d="M32.38,46l9.81-12h-7L27.37,44.37h-.11V34H21.49V59.48h.34c2.49,0,5.46-1.15,5.46-5.32V48.31h.12l8,10.85h7.33Z"></path>
      <path class="cls-2" d="M69,52.37c0-5-3.27-7.31-7-7.31a9.78,9.78,0,0,0-2.39.32v-3.8a2.9,2.9,0,0,0-3-3.22H56V58.6a18.64,18.64,0,0,0,5.65.87C66.28,59.47,69,56.55,69,52.37Zm-3.77-.1c0,3-1.85,4.34-4,4.34a7,7,0,0,1-1.69-.21V48.14a6.67,6.67,0,0,1,1.69-.21C63.53,47.92,65.2,49.45,65.2,52.28Z"></path>
      <path class="cls-2" d="M78.19,45.06c-1.68,0-3.16,1.37-3.76,2a2.44,2.44,0,0,0-2.53-1.72,4.47,4.47,0,0,0-.92.11,13.62,13.62,0,0,1,.39,3.33v10.4h3.51V49.35a4.32,4.32,0,0,1,2.7-1.22,3,3,0,0,1,1.6.42l1.29-2.91A3.68,3.68,0,0,0,78.19,45.06Z"></path>
      <path class="cls-2" d="M87.36,59.47c-4.3,0-6.88-2.84-6.88-7.2s2.55-7.21,6.88-7.21,6.89,2.87,6.89,7.21C94.25,56.37,91.89,59.47,87.36,59.47Zm0-2.7c2.17,0,3.4-1.85,3.4-4.5s-1.2-4.51-3.4-4.51S84,49.59,84,52.27,85.18,56.77,87.36,56.77Z"></path>
      <path class="cls-2" d="M105,57.77A2.09,2.09,0,0,0,107,59.16a6.93,6.93,0,0,0,1.63-.23,13.5,13.5,0,0,1-.43-3.9V50.19c0-3.59-2.31-5.13-5.89-5.13A10.06,10.06,0,0,0,97,46.67l.24.43c.3.51.57,1.27,1.45,1.27s1.63-.67,3.3-.67c1.84,0,2.72.89,2.72,2.25v.48h-1.15c-4.71,0-7.19,1.82-7.19,4.74,0,2.58,2,4.3,4.69,4.3A5.1,5.1,0,0,0,105,57.77Zm-.3-2.08a4.36,4.36,0,0,1-2.57,1,2,2,0,0,1-2.14-2c0-1,1-1.92,2.89-1.92h1.81Z"></path>
      <path class="cls-2" d="M118.16,59.47a18.6,18.6,0,0,0,5.65-.87V38.36h-.55a2.9,2.9,0,0,0-3,3.22v3.8a9.85,9.85,0,0,0-2.39-.32c-3.77,0-7,2.34-7,7.31C110.87,56.55,113.56,59.47,118.16,59.47Zm.45-11.54a6.7,6.7,0,0,1,1.7.21v8.27a6.89,6.89,0,0,1-1.69.21c-2.12,0-4-1.38-4-4.34S116.3,47.92,118.61,47.92Z"></path>
      <path class="cls-2" d="M180.11,59.47a18.58,18.58,0,0,0,5.65-.87V38.36h-.55a2.9,2.9,0,0,0-3,3.22v3.8a9.85,9.85,0,0,0-2.39-.32c-3.77,0-7,2.34-7,7.31C172.82,56.55,175.51,59.47,180.11,59.47Zm.46-11.54a6.66,6.66,0,0,1,1.69.21v8.27a6.92,6.92,0,0,1-1.69.21c-2.12,0-4-1.38-4-4.34S178.25,47.92,180.56,47.92Z"></path>
      <path class="cls-2" d="M140.44,52.37c0-5-3.27-7.31-7-7.31a9.76,9.76,0,0,0-2.39.32v-3.8a2.9,2.9,0,0,0-3-3.22h-.55V58.6a18.64,18.64,0,0,0,5.65.87C137.75,59.47,140.44,56.55,140.44,52.37Zm-3.77-.1c0,3-1.85,4.34-4,4.34a7,7,0,0,1-1.69-.21V48.14a6.72,6.72,0,0,1,1.69-.21C135,47.92,136.67,49.45,136.67,52.28Z"></path>
      <path class="cls-2" d="M151.17,57.77a2.1,2.1,0,0,0,2.07,1.39,6.93,6.93,0,0,0,1.63-.23,13.54,13.54,0,0,1-.43-3.9V50.19c0-3.59-2.31-5.13-5.89-5.13a10.05,10.05,0,0,0-5.4,1.61l.24.43c.3.51.57,1.27,1.45,1.27s1.63-.67,3.3-.67c1.84,0,2.73.89,2.73,2.25v.48h-1.15c-4.71,0-7.18,1.82-7.18,4.74,0,2.58,2,4.3,4.69,4.3A5.1,5.1,0,0,0,151.17,57.77Zm-.3-2.08a4.37,4.37,0,0,1-2.57,1,2,2,0,0,1-2.14-2c0-1,1-1.92,2.89-1.92h1.82Z"></path>
      <path class="cls-2" d="M157.82,49.8v9.36h3.51V49.44a4.67,4.67,0,0,1,2.82-1.37,2.7,2.7,0,0,1,2.75,3v8.08h3.5v-9a4.83,4.83,0,0,0-5.1-5.19,6.22,6.22,0,0,0-4.22,1.85,2.27,2.27,0,0,0-2.35-1.54,7.05,7.05,0,0,0-1.32.17A18.85,18.85,0,0,1,157.82,49.8Z"></path>
      <path class="cls-1" d="M55.86,24.38l1.09,0c.51,0,1.08.07,1.86.06a21,21,0,0,0,10.71-3,37.76,37.76,0,0,0-18.57-5.86c-.52,1.46-4.55,12.68-4.86,13.58a15,15,0,0,1,1.64,2.39,26.42,26.42,0,0,1,2.38,5c1-1.69,1.18-4.3,1.28-7.29C51.47,26.83,51.9,24.4,55.86,24.38Z"></path>
      <path class="cls-2" d="M76.18,27.11a22.79,22.79,0,0,0-5.1-4.54l-.08,0a23.74,23.74,0,0,1-12,3.47c-.76,0-1.21,0-1.6-.05l-1.05,0C53.6,26,53,27.17,53,29.43l0,.61,0,1.14c-.1,2.5-.43,5.33-2,7.29l-.07.09A3.51,3.51,0,0,0,51,39a.63.63,0,0,0,.57.35,1.32,1.32,0,0,0,.52-.14l22.37-10.4c.42-.2,1.21-.55,1.47-.7a.7.7,0,0,0,.39-.61A.75.75,0,0,0,76.18,27.11Z"></path>
      <path class="cls-1" d="M42.74,6.84l-.17,0c-1.89.35-4.88,2.1-4.87,5.29a8.44,8.44,0,0,0,1.08,3.62,11.2,11.2,0,0,1,1.36,5A7,7,0,0,1,37,26.73c.59,0,1.22-.07,1.91-.07a19.21,19.21,0,0,1,2.91.17l9.11-11.18A37.88,37.88,0,0,0,42.74,6.84Z"></path>
      <path class="cls-2" d="M35.19,26.17a6,6,0,0,0,3.3-5.42,9.88,9.88,0,0,0-1.22-4.3A10.26,10.26,0,0,1,36,12c0-3.82,3.08-5.79,5-6.39C34.87,1.34,29.1,0,28,0a.67.67,0,0,0-.69.74c0,.3.12,1.14.16,1.6.34,3.16,2.62,24,2.67,24.52s.29.84.75.83h.25a6.92,6.92,0,0,0,1.76-.42A14.78,14.78,0,0,0,35.19,26.17Z"></path>
    </g>
  </g>
</svg>
